<svg width="119" height="11" viewBox="0 0 119 11" fill="none" xmlns="http://www.w3.org/2000/svg">
<path d="M5.07033 0.876953C5.73983 0.876953 6.28703 1.15035 6.72853 1.66215C7.19293 2.19665 7.41303 2.80645 7.41313 3.55375C7.41313 4.32155 7.19463 4.97915 6.72853 5.51565L6.72753 5.51465C6.28753 6.04795 5.71853 6.34665 5.07033 6.34665H1.53123V10.5928H0.62793V0.876953H5.07033ZM1.53123 5.49415H4.95413C5.38103 5.49415 5.74443 5.32635 6.07323 4.95605C6.37783 4.61005 6.53223 4.17655 6.53223 3.66995C6.53223 3.14085 6.37853 2.68195 6.07133 2.28815L5.95513 2.16015C5.67633 1.88235 5.34973 1.75295 4.95413 1.75295H1.53123V5.49415Z" fill="#171238" stroke="#171238" stroke-width="0.25"/>
<path d="M11.8239 0.876953V5.00685H17.3149V0.876953H18.2179V10.5928H17.3149V5.88285H11.8239V10.5928H10.9199V0.876953H11.8239Z" fill="#171238" stroke="#171238" stroke-width="0.25"/>
<path d="M26.2631 0.668091C27.5791 0.668191 28.6421 1.12209 29.4381 2.05779C30.2321 2.99019 30.6351 4.22769 30.6351 5.75799C30.6351 7.24069 30.2551 8.43259 29.4371 9.34289C28.6401 10.2544 27.5781 10.7091 26.2631 10.7091C24.9471 10.7091 23.8841 10.2552 23.0881 9.34389C22.2941 8.43499 21.8901 7.24319 21.8901 5.75799C21.8901 4.23019 22.2681 2.99159 23.0861 2.05779L23.2391 1.88789C24.0171 1.06709 25.0291 0.668091 26.2631 0.668091ZM26.2631 1.49819C25.2011 1.49819 24.3741 1.87799 23.7461 2.65839L23.7451 2.65929C23.1151 3.41969 22.7931 4.45589 22.7931 5.75799C22.7931 7.01309 23.1141 8.02579 23.7431 8.76289C24.3721 9.49899 25.2001 9.87909 26.2631 9.87909C27.3251 9.87899 28.1531 9.49879 28.7811 8.76289C29.4111 8.02559 29.7311 7.03589 29.7311 5.75799C29.7311 4.45709 29.4111 3.44309 28.7791 2.65839C28.1501 1.89959 27.3221 1.49829 26.2631 1.49819Z" fill="#171238"/>
<path d="M23.7451 2.65929L23.7461 2.65839C24.3741 1.87799 25.2011 1.49819 26.2631 1.49819C27.3221 1.49829 28.1501 1.89959 28.7791 2.65839C29.4111 3.44309 29.7311 4.45709 29.7311 5.75799C29.7311 7.03589 29.4111 8.02559 28.7811 8.76289C28.1531 9.49879 27.3251 9.87899 26.2631 9.87909C25.2001 9.87909 24.3721 9.49899 23.7431 8.76289C23.1141 8.02579 22.7931 7.01309 22.7931 5.75799C22.7931 4.45589 23.1151 3.41969 23.7451 2.65929ZM23.7451 2.65929L23.6481 2.57929M26.2631 0.668091C27.5791 0.668191 28.6421 1.12209 29.4381 2.05779C30.2321 2.99019 30.6351 4.22769 30.6351 5.75799C30.6351 7.24069 30.2551 8.43259 29.4371 9.34289C28.6401 10.2544 27.5781 10.7091 26.2631 10.7091C24.9471 10.7091 23.8841 10.2552 23.0881 9.34389C22.2941 8.43499 21.8901 7.24319 21.8901 5.75799C21.8901 4.23019 22.2681 2.99159 23.0861 2.05779L23.2391 1.88789C24.0171 1.06709 25.0291 0.668091 26.2631 0.668091Z" stroke="#171238" stroke-width="0.25"/>
<path d="M40.7881 0.876953V1.75295H37.4971V10.5928H36.6171V1.75295H33.3491V0.876953H40.7881Z" fill="#171238" stroke="#171238" stroke-width="0.25"/>
<path d="M47.851 0.668091C49.167 0.668191 50.23 1.12209 51.027 2.05779C51.82 2.99019 52.223 4.22769 52.223 5.75799C52.223 7.23989 51.844 8.43089 51.026 9.34099L51.027 9.34199C50.253 10.2554 49.189 10.7091 47.851 10.7091C46.535 10.7091 45.473 10.2552 44.676 9.34389C43.882 8.43499 43.478 7.24319 43.478 5.75799C43.478 4.23019 43.856 2.99159 44.674 2.05779L44.828 1.88789C45.606 1.06709 46.617 0.668091 47.851 0.668091ZM47.851 1.49819C46.789 1.49819 45.963 1.87799 45.334 2.65839L45.333 2.65929C44.703 3.41969 44.381 4.45589 44.381 5.75799C44.381 7.01309 44.702 8.02579 45.332 8.76289C45.96 9.49859 46.811 9.87909 47.851 9.87909C48.913 9.87899 49.741 9.49879 50.37 8.76289C50.999 8.02559 51.32 7.03589 51.32 5.75799C51.32 4.45709 50.999 3.44309 50.368 2.65839C49.738 1.89959 48.91 1.49829 47.851 1.49819Z" fill="#171238"/>
<path d="M45.333 2.65929L45.334 2.65839C45.963 1.87799 46.789 1.49819 47.851 1.49819C48.91 1.49829 49.738 1.89959 50.368 2.65839C50.999 3.44309 51.32 4.45709 51.32 5.75799C51.32 7.03589 50.999 8.02559 50.37 8.76289C49.741 9.49879 48.913 9.87899 47.851 9.87909C46.811 9.87909 45.96 9.49859 45.332 8.76289C44.702 8.02579 44.381 7.01309 44.381 5.75799C44.381 4.45589 44.703 3.41969 45.333 2.65929ZM45.333 2.65929L45.237 2.57929M47.851 0.668091C49.167 0.668191 50.23 1.12209 51.027 2.05779C51.82 2.99019 52.223 4.22769 52.223 5.75799C52.223 7.23989 51.844 8.43089 51.026 9.34099L51.027 9.34199C50.253 10.2554 49.189 10.7091 47.851 10.7091C46.535 10.7091 45.473 10.2552 44.676 9.34389C43.882 8.43499 43.478 7.24319 43.478 5.75799C43.478 4.23019 43.856 2.99159 44.674 2.05779L44.828 1.88789C45.606 1.06709 46.617 0.668091 47.851 0.668091Z" stroke="#171238" stroke-width="0.25"/>
<path d="M59.9859 0.644897C60.9449 0.644897 61.8119 0.931297 62.5579 1.5043C63.3069 2.057 63.7449 2.7809 63.9139 3.6459L63.9419 3.7953H63.0329L63.0149 3.6918C62.9039 3.0764 62.5729 2.5467 61.9899 2.1234L61.9879 2.1225C61.4299 1.7006 60.7569 1.4984 59.9859 1.4984C58.9509 1.4986 58.0749 1.8989 57.3509 2.7309L57.3499 2.7328C56.6019 3.5665 56.2369 4.5799 56.2369 5.7348C56.2369 6.8389 56.5569 7.7782 57.2139 8.5785L57.3499 8.7367L57.3509 8.7387C58.0749 9.5706 58.9509 9.971 59.9859 9.9711C60.8599 9.9711 61.5979 9.6397 62.2289 8.9672L62.3399 8.8432C62.8749 8.2168 63.1519 7.4546 63.1519 6.5697V6.4633H59.8609V5.6332H63.8929V10.6156H63.1519V9.1078C62.8989 9.5506 62.5429 9.9263 62.0849 10.224C61.4579 10.6313 60.7579 10.848 59.9859 10.848C58.7119 10.8479 57.6059 10.3438 56.6969 9.3451C55.7879 8.3459 55.3569 7.1554 55.3569 5.7582C55.3569 4.36 55.8119 3.147 56.6959 2.1488L56.6969 2.1479C57.6059 1.1492 58.7119 0.644997 59.9859 0.644897Z" fill="#171238" stroke="#171238" stroke-width="0.25"/>
<path d="M72.3791 0.876953C73.0681 0.876953 73.6611 1.14715 74.1271 1.65825L74.2991 1.85455C74.6741 2.32355 74.8621 2.87125 74.8621 3.50785C74.8621 4.13045 74.7171 4.68825 74.4221 5.15235C74.1971 5.50665 73.9121 5.75035 73.5881 5.89165C73.8871 6.07405 74.1301 6.38505 74.3131 6.81935C74.5801 7.39795 74.6991 8.11355 74.6991 8.91315C74.6991 9.24685 74.6991 9.52115 74.7081 9.72165L74.7211 9.89745V9.89945C74.7441 10.1461 74.7891 10.3192 74.8301 10.421L74.8991 10.5928H74.0251L73.9881 10.5479C73.8451 10.378 73.7721 10.1131 73.7491 9.78025V9.77635L73.7021 8.43065V8.42585L73.6951 8.19635C73.6611 7.67305 73.5081 7.23475 73.2551 6.84765V6.84665C72.9681 6.43055 72.6291 6.23155 72.2631 6.23145H68.6071V10.5928H67.7041V0.876953H72.3791ZM68.5831 5.37795H72.2401C72.7171 5.37795 73.1041 5.20775 73.4561 4.83695L73.5721 4.70315C73.8251 4.38035 73.9581 3.99315 73.9581 3.55375C73.9581 3.05305 73.7851 2.62065 73.4581 2.27345L73.3251 2.15135C73.0081 1.88425 72.6581 1.75295 72.2401 1.75295H68.5831V5.37795Z" fill="#171238" stroke="#171238" stroke-width="0.25"/>
<path d="M82.5701 0.876953L82.6011 0.956053L86.3351 10.4219L86.4031 10.5928H85.3881L85.3561 10.5137L84.1741 7.55375H79.9551L78.7501 10.5147L78.7181 10.5928H77.7261L77.7941 10.421L81.5761 0.956053L81.6071 0.876953H82.5701ZM80.2421 6.70025H83.8431L82.0631 2.08695L80.2421 6.70025Z" fill="#171238" stroke="#171238" stroke-width="0.25"/>
<path d="M94.084 0.876953C94.754 0.876953 95.301 1.15035 95.743 1.66215C96.207 2.19665 96.427 2.80645 96.427 3.55375C96.427 4.32155 96.209 4.97915 95.743 5.51565L95.742 5.51465C95.302 6.04785 94.733 6.34665 94.084 6.34665H90.545V10.5928H89.666V0.876953H94.084ZM90.545 5.49415H93.968C94.395 5.49415 94.759 5.32665 95.088 4.95605L95.195 4.82225C95.428 4.50055 95.547 4.11325 95.547 3.66995C95.547 3.14075 95.393 2.68195 95.085 2.28815C94.782 1.92185 94.42 1.75295 93.968 1.75295H90.545V5.49415Z" fill="#171238" stroke="#171238" stroke-width="0.25"/>
<path d="M100.814 0.876953V5.00685H106.306V0.876953H107.209V10.5928H106.306V5.88285H100.814V10.5928H99.9111V0.876953H100.814Z" fill="#171238" stroke="#171238" stroke-width="0.25"/>
<path d="M111.538 0.900146L111.575 0.955845L114.574 5.41485L117.481 0.956846L117.519 0.900146H118.729L118.601 1.09455L115.098 6.39925V10.5925H114.101V6.39925L110.458 1.09545L110.324 0.900146H111.538Z" fill="#171238" stroke="#171238" stroke-width="0.25"/>
</svg>
