<svg width="80" height="42" viewBox="0 0 80 42" fill="none" xmlns="http://www.w3.org/2000/svg">
<path d="M4.17959 40.3918C3.82863 40.1134 3.50958 39.6726 3.12672 39.0694C2.77576 38.443 2.48861 37.8398 2.29718 37.2598C1.85051 36.0765 1.46764 34.7309 1.1805 33.2461C0.797629 31.2741 0.510482 28.606 0.287146 25.2652C0.095714 22.8291 0 20.2075 0 17.4003C0 13.9666 0.159524 7.26171 0.446672 2.96965C0.478577 2.38964 0.574294 1.80963 0.701919 1.20642C0.765729 0.904809 0.861439 0.649609 0.989059 0.464009C1.2124 0.162403 1.53145 0 1.97813 0C2.26527 0 2.48861 0.069602 2.71195 0.185604C3.09481 0.440809 3.31815 0.719209 3.31815 1.09042C3.31815 1.34562 3.19053 1.53122 2.96719 1.71683C2.64814 1.92563 2.4567 2.25043 2.4248 2.71444C2.16956 6.4265 1.97813 12.4122 1.88241 14.941C1.8186 17.3307 1.78669 19.0939 1.78669 20.2771C1.78669 23.4555 1.91432 26.4252 2.20146 29.1628C2.48861 31.9005 2.9991 34.5221 3.76482 37.051C3.89244 37.4918 4.11578 38.0022 4.40293 38.559C4.69008 39.1158 4.97722 39.5102 5.29627 39.7654C5.4558 39.8814 5.61533 39.951 5.77485 39.951C5.93438 39.951 6.12581 39.8582 6.31724 39.6726C7.11488 38.9534 7.81679 37.8862 8.42299 36.4941C9.6673 33.8261 10.752 30.2764 11.6773 25.822C12.9535 19.9059 13.6235 13.6418 13.6554 7.05291V6.98331C13.6554 6.7513 13.6235 6.5889 13.5278 6.4961C13.464 6.4033 13.3683 6.31049 13.2407 6.24089C13.113 6.17129 12.9854 6.12489 12.9535 6.10169C12.6664 5.89289 12.5387 5.73049 12.5387 5.61449C12.5387 5.33608 12.6664 5.12728 12.9535 4.94168C13.2087 4.75607 13.5278 4.68647 13.8788 4.68647L14.2616 4.70967C15.0593 4.91848 15.474 5.61449 15.5378 6.7977V6.8905C15.5697 7.19211 15.5697 7.65612 15.5697 8.28253C15.5697 11.2522 15.3145 14.709 14.7721 18.6763C14.2935 22.4115 13.6873 25.7988 12.9535 28.838C12.2197 31.8773 11.1668 34.7541 9.82683 37.4918C9.44396 38.327 8.86966 39.139 8.16775 39.9046C7.43393 40.6702 6.6682 41.0414 5.87057 41.0414C5.29627 41.0182 4.72198 40.8094 4.17959 40.3918Z" fill="#171238"/>
<path d="M21.3127 14.1986C21.0575 14.1986 20.8022 14.129 20.5789 13.9898C20.3556 13.8506 20.228 13.6882 20.228 13.5258C20.228 13.3866 20.3237 13.2474 20.5151 13.1314C20.7065 13.0154 20.898 12.969 21.1213 12.969C21.4084 12.969 21.6318 13.0386 21.8551 13.1778C22.0465 13.317 22.1742 13.4562 22.2061 13.6186C22.2061 13.781 22.1104 13.9202 21.9189 14.0362C21.7594 14.129 21.5361 14.1986 21.3127 14.1986ZM21.1532 27.6548C20.6746 27.8404 20.228 27.9332 19.8451 27.9332C18.9836 27.9332 18.3774 27.562 17.9946 26.8196C17.9308 26.7036 17.8989 26.5412 17.8351 26.3788C17.8032 26.1932 17.7712 26.054 17.7393 25.9612C17.6755 25.7524 17.6436 25.2652 17.6436 24.4764C17.6436 23.8035 17.6755 23.1307 17.7712 22.4347C17.8351 21.9475 17.9627 21.2051 18.186 20.2075C18.2498 19.9291 18.2817 19.5347 18.2817 18.9779C18.2817 18.5371 18.5689 18.1195 19.1751 17.6787C19.3027 17.5859 19.4941 17.5163 19.6856 17.5163C19.9089 17.5163 20.1003 17.5627 20.228 17.6323C20.6427 17.8179 20.8022 18.0731 20.6427 18.3747C20.2599 19.3723 19.9727 20.2307 19.8451 20.9963C19.4622 22.7131 19.3346 24.0588 19.3665 25.1028C19.3665 25.7756 19.526 26.3092 19.8451 26.6804C20.1003 26.634 20.3237 26.5644 20.4832 26.4716C20.6427 26.3788 20.8661 26.2164 21.0894 26.0308C22.6208 24.9172 24.0566 23.6875 25.4285 22.3651C25.6838 22.0867 25.939 21.8315 26.2261 21.5995C26.4495 21.4139 26.7047 21.3211 26.9919 21.3211C27.3109 21.3211 27.5343 21.3675 27.7257 21.4835C27.9171 21.5995 28.0128 21.7387 28.0128 21.9243C28.0128 22.0635 27.949 22.2027 27.7895 22.3651L26.6409 23.4091C25.3966 24.5924 24.0885 25.6828 22.7485 26.6804C22.1742 27.1444 21.6637 27.446 21.1532 27.6548Z" fill="#171238"/>
<path d="M30.6926 28.0724C30.1822 28.374 29.6398 28.5364 29.0974 28.5364C28.2997 28.5364 27.6297 28.1884 27.0554 27.5156C26.5769 26.8892 26.2578 25.9844 26.0664 24.8012C26.0026 23.6411 26.1621 22.4579 26.545 21.2747C26.9278 20.0915 27.534 18.9779 28.3955 17.9339C28.6188 17.6323 28.9059 17.4002 29.1931 17.2146C29.5121 17.029 29.7993 16.9362 30.1184 16.9362C30.3098 16.9362 30.5969 16.9826 30.916 17.0986C31.1712 17.1914 31.3946 17.377 31.586 17.6323C31.7774 17.8875 31.8731 18.1195 31.8731 18.3283C31.8731 18.5139 31.7774 18.6531 31.586 18.7691C31.3946 18.8851 31.1712 18.9083 30.916 18.8851C30.6288 18.8387 30.4693 18.7923 30.4055 18.7691C30.2779 18.6995 30.1822 18.6763 30.1184 18.6763C29.9907 18.6763 29.895 18.7459 29.7674 18.8851L29.5121 19.1867C28.3955 20.9035 27.8212 22.6667 27.8212 24.4996C27.8212 25.4276 28.0445 26.2396 28.4912 26.9588C28.6188 27.1444 28.8421 27.2372 29.0974 27.2372C29.2569 27.2372 29.4802 27.1908 29.7036 27.0748C29.9269 26.9124 30.4374 26.4948 31.235 25.8452C32.2241 24.9636 33.1493 24.0123 34.0427 23.0147C34.936 22.0171 35.4146 21.4603 35.5103 21.3907C35.7656 21.1123 36.0527 20.9963 36.4037 20.9963C36.6908 20.9963 36.9142 21.0427 37.0737 21.1587C37.2332 21.2515 37.297 21.3907 37.297 21.5531C37.297 21.6923 37.2651 21.8083 37.2013 21.8547C37.1694 21.9243 37.1056 22.0171 36.978 22.1331C36.0527 23.2003 35.4146 23.9195 35.0637 24.3139C34.7127 24.6852 34.0108 25.358 33.0217 26.2628C32.4474 26.7732 31.9369 27.214 31.4584 27.562C31.2669 27.7244 31.0117 27.8868 30.6926 28.0724Z" fill="#171238"/>
<path d="M36.7547 39.6263C36.2123 39.6263 35.8295 39.4407 35.6061 39.0695C35.4785 38.9071 35.4466 38.7215 35.4466 38.5127C35.4466 38.3271 35.5104 38.1647 35.6061 38.0255C35.7976 37.8167 35.8933 37.4918 35.8933 37.0742C35.8933 35.7286 35.8933 34.7078 35.8614 34.0582V31.8078V28.9309V24.8245L35.8933 22.5972L35.9252 22.2492C35.989 19.9756 36.0528 18.3052 36.1485 17.2843C36.2762 14.6859 36.4357 12.7139 36.6271 11.3451C35.0319 11.5075 33.5323 11.6003 32.0328 11.6003C31.2032 11.6003 30.4056 11.5771 29.576 11.5075C28.2998 11.3915 27.247 11.1363 26.4493 10.765C25.7474 10.4402 25.3965 10.069 25.3965 9.65136C25.3965 9.46576 25.4922 9.30336 25.6517 9.16419C25.8112 9.02498 26.0346 8.90898 26.3217 8.86258C26.4493 8.83938 26.5769 8.83938 26.8003 8.83938C27.1831 8.83938 27.4384 8.95538 27.5979 9.18739C27.6617 9.28016 27.6936 9.37296 27.7255 9.46576C27.7575 9.55856 27.7894 9.65136 27.8213 9.74416C27.9489 10.0226 28.1403 10.2082 28.4913 10.301C28.8103 10.3938 29.2889 10.4634 29.927 10.5562C30.8204 10.6258 31.6818 10.649 32.5113 10.649C33.8514 10.649 35.0957 10.6026 36.34 10.4866L36.7547 10.417V10.2546L37.2333 6.61215C37.3609 5.80013 37.5524 5.17372 37.7438 4.80252C37.8714 4.57052 38.0948 4.40812 38.4138 4.31531L38.701 4.29211C38.9562 4.29211 39.1795 4.36171 39.371 4.47772C39.7538 4.70972 39.9134 4.96492 39.7857 5.28973C39.3072 6.63535 38.9243 8.21297 38.6371 10.069V10.2314C39.02 10.2082 39.9772 10.069 41.5724 9.83696C43.1677 9.58176 44.3482 9.37296 45.1139 9.16419C46.8049 8.72338 47.8578 8.35217 48.3044 8.07377C48.5597 7.88817 48.8468 7.79537 49.1659 7.79537C49.5168 7.79537 49.7721 7.88817 49.9316 8.05057C50.0911 8.21297 50.123 8.42177 50.0273 8.63058C49.8997 8.88578 49.4849 9.11778 48.8149 9.32656C48.1449 9.53536 46.9325 9.83696 45.1777 10.2314C44.4439 10.3938 43.2953 10.5794 41.732 10.8115C40.1686 11.0203 39.0838 11.1595 38.5414 11.2291C38.4138 11.9019 38.35 12.6675 38.2543 13.5491C38.1905 14.4075 38.1267 15.0107 38.0948 15.3587C38.0309 16.1475 37.9671 16.7275 37.9352 17.1219C37.8714 17.818 37.8076 18.9084 37.7757 20.3932L37.68 21.7852L37.6481 24.1517C37.6481 24.8941 37.6481 25.4509 37.68 25.8221V28.6061L37.8076 33.8262L37.8395 35.1486C37.8714 35.775 37.8714 36.7494 37.8714 38.0487C37.8714 38.4895 37.8714 38.7911 37.8395 38.9999C37.7438 39.4407 37.4567 39.6959 36.9462 39.7191H36.7547V39.6263Z" fill="#171238"/>
<path d="M44.7309 29.418C44.4119 29.766 43.9333 29.998 43.4228 29.998C42.9442 29.998 42.4976 29.8588 42.1785 29.5108C41.9552 29.2556 41.668 28.954 41.4766 28.49C41.1576 27.7244 40.9342 26.8892 40.8385 26.054C40.7428 25.2188 40.7428 24.1747 40.7428 23.0379C40.7428 22.5275 40.8704 21.8083 40.9342 20.8107L41.1895 19.5579L41.2214 19.0011C41.2214 18.7227 41.0299 18.6067 40.6152 18.6067C40.4556 18.6067 40.2323 18.6299 40.009 18.6763C39.7856 18.7227 39.6261 18.7459 39.5942 18.7459C39.307 18.7459 39.0518 18.6995 38.8604 18.5835C38.637 18.4675 38.5413 18.3283 38.5094 18.1659L38.4775 18.0731C38.4775 17.7947 38.7328 17.5394 39.2751 17.3538C39.3709 17.3306 39.6261 17.3074 40.0409 17.261C40.4556 17.2146 40.8066 17.145 41.0618 17.029C41.3171 16.913 41.4447 16.7274 41.4766 16.449C41.5085 16.3098 41.5404 16.101 41.5723 15.869C41.6042 15.6138 41.668 15.405 41.7319 15.2194C41.7638 14.9874 41.8595 14.7786 42.019 14.5466C42.2104 14.2682 42.5295 14.1522 43.0081 14.1522C43.2314 14.1522 43.3909 14.1754 43.5185 14.2218C43.9014 14.3378 44.1247 14.5234 44.1247 14.7786C44.1247 14.8714 44.0928 14.9874 43.9971 15.1266C43.8057 15.521 43.6781 15.753 43.6462 15.7994C43.6462 15.8226 43.6143 15.8922 43.5824 16.0314C43.5504 16.1706 43.4866 16.3794 43.4228 16.6578C45.1138 16.217 46.5495 15.9154 47.6981 15.7066C48.432 15.5442 49.1339 15.4514 49.8039 15.4514C50.6015 15.4514 51.2396 15.6138 51.7182 15.9386C52.1968 16.2634 52.4839 16.7042 52.5796 17.261C52.6115 17.3538 52.6116 17.5162 52.6116 17.725C52.6116 17.9339 52.5796 18.2355 52.5158 18.6531C52.4201 19.1171 52.3244 19.7899 52.2287 20.6251L52.1968 20.9731C52.1968 21.1123 52.2287 21.2283 52.2925 21.3211C52.452 21.2283 52.5796 21.0891 52.6434 20.9499C52.7073 20.8107 52.7392 20.7179 52.7392 20.6715C53.4411 19.0939 54.3344 17.6322 55.3554 16.333C55.8021 15.7298 56.2487 15.2658 56.7273 14.9178C56.9826 14.6858 57.2059 14.5234 57.4292 14.4074C57.6526 14.2914 57.8759 14.245 58.1631 14.245C58.2907 14.245 58.4502 14.2682 58.6416 14.3378C59.1202 14.4538 59.4074 14.6626 59.5031 14.941C59.5988 15.2194 59.6626 15.6138 59.6626 16.1242V17.0522C59.6626 17.261 59.6307 17.4234 59.535 17.5162C59.4393 17.609 59.2797 17.7018 59.0564 17.725H58.8969C58.6735 17.725 58.4821 17.6786 58.2907 17.609C58.1312 17.5394 58.0035 17.4234 57.9397 17.2842C57.8759 17.1682 57.844 17.0058 57.8121 16.797C57.7802 16.6114 57.7483 16.449 57.7164 16.3098C57.525 16.3794 57.3654 16.449 57.2697 16.5186C57.174 16.6114 57.0783 16.7274 56.9826 16.8898C54.813 19.6043 53.5049 22.6435 53.0263 26.054L52.9944 26.6108C52.9944 27.0052 53.0901 27.33 53.2497 27.562C53.2816 27.6316 53.2816 27.7244 53.2816 27.8404C53.2816 27.9796 53.2177 28.0956 53.0582 28.1884C52.8987 28.2812 52.7073 28.3276 52.4839 28.3276C52.0372 28.3276 51.6863 28.1884 51.4311 27.9332C51.0163 27.4924 50.7291 27.0284 50.6334 26.6108C50.5058 25.7524 50.4101 24.9868 50.4101 24.2908C50.4101 23.5947 50.442 22.9451 50.5377 22.2491C50.6015 21.6459 50.6972 20.6483 50.8887 19.2563L51.0163 18.2355V17.7947C51.0163 17.5162 51.0163 17.3306 50.9844 17.1682C50.9206 16.9826 50.8249 16.8202 50.6972 16.7042C50.5696 16.5882 50.3782 16.5186 50.1867 16.5186C49.8039 16.5186 49.421 16.5418 49.0382 16.6114C47.8577 16.7738 45.9114 17.1914 43.2314 17.8643C43.8057 18.0499 44.699 18.6995 44.8905 18.9083C45.3691 19.4187 46.0072 20.2539 46.4219 21.3675C46.8686 22.5275 46.8686 23.9891 46.6772 25.1724C46.5495 26.1236 46.2624 27.3532 45.5924 28.3508C45.2095 28.9308 44.9543 29.1628 44.7309 29.418ZM43.4547 28.0956C43.8057 27.678 44.3481 26.8196 44.6352 25.6596C44.8586 24.8012 45.05 23.8963 44.9224 23.1075C44.7629 22.2259 43.9971 20.9035 42.9442 20.7875C42.8166 21.2515 42.4338 22.7363 42.4338 23.8267C42.4338 25.3812 42.5295 25.822 42.7209 26.6804C42.7209 26.7036 42.7847 26.982 42.9123 27.2372C42.9762 27.4228 43.0719 27.6316 43.1038 27.678C43.1676 27.794 43.2952 28.026 43.4547 28.0956Z" fill="#171238"/>
<path d="M63.8424 14.1986C63.5872 14.1986 63.3319 14.129 63.1086 13.9898C62.8853 13.8506 62.7576 13.6882 62.7576 13.5258C62.7576 13.3866 62.8534 13.2474 63.0448 13.1314C63.2362 13.0154 63.4276 12.969 63.651 12.969C63.9381 12.969 64.1615 13.0386 64.3848 13.1778C64.5762 13.317 64.7039 13.4562 64.7358 13.6186C64.7358 13.781 64.64 13.9202 64.4486 14.0362C64.2572 14.129 64.0658 14.1986 63.8424 14.1986ZM63.6829 27.6548C63.2043 27.8404 62.7576 27.9332 62.3748 27.9332C61.5133 27.9332 60.9071 27.562 60.5243 26.8196C60.4605 26.7036 60.4286 26.5412 60.3647 26.3788C60.3009 26.2164 60.3009 26.054 60.269 25.9612C60.2052 25.7524 60.1733 25.2652 60.1733 24.4764C60.1733 23.8035 60.2052 23.1307 60.3009 22.4347C60.3647 21.9475 60.4924 21.2051 60.7157 20.2075C60.7795 19.9291 60.8114 19.5347 60.8114 18.9779C60.8114 18.5371 61.0986 18.1195 61.7048 17.6787C61.8324 17.5859 62.0238 17.5163 62.2152 17.5163C62.4386 17.5163 62.63 17.5627 62.7576 17.6323C63.1724 17.8179 63.3319 18.0731 63.1724 18.3747C62.7895 19.3723 62.5024 20.2307 62.3748 20.9963C61.9919 22.7131 61.8643 24.0588 61.8962 25.1028C61.8962 25.7756 62.0557 26.3092 62.3748 26.6804C62.63 26.634 62.8534 26.5644 63.0129 26.4716C63.1724 26.3788 63.3957 26.2164 63.6191 26.0308C65.1505 24.9172 66.5863 23.6875 67.9582 22.3651C68.2134 22.0867 68.4687 21.8315 68.7558 21.5995C68.9792 21.4139 69.2344 21.3211 69.5216 21.3211C69.8406 21.3211 70.0639 21.3675 70.2554 21.4835C70.4468 21.5995 70.5425 21.7387 70.5425 21.9243C70.5425 22.0635 70.4787 22.2027 70.3192 22.3651L69.1706 23.4091C67.9263 24.5924 66.6182 25.6828 65.2782 26.6804C64.7039 27.1444 64.1934 27.446 63.6829 27.6548Z" fill="#171238"/>
<path d="M79.3166 29.6732C79.0613 29.7428 78.8061 29.766 78.5828 29.766C77.7532 29.766 77.1789 29.4644 76.8599 28.8612C76.5089 28.2812 76.3175 27.562 76.2218 26.7036C76.0622 25.358 75.9027 23.5019 75.807 21.1819C75.5837 21.4139 75.3922 21.6691 75.2327 21.9707C75.0732 22.2723 74.9456 22.5507 74.8179 22.8523C74.3074 24.1284 73.7651 25.1724 73.1589 25.9612C72.8398 26.402 72.5208 26.7732 72.1698 27.0052C71.7869 27.2836 71.3722 27.3996 70.8936 27.3996C70.2874 27.3996 69.7769 27.1676 69.394 26.7268C69.2345 26.5412 69.1069 26.3324 69.0431 26.054C68.9793 25.7988 68.9155 25.6364 68.8836 25.5668C68.7878 25.2188 68.7559 24.8708 68.7559 24.5228C68.7559 23.8732 68.8517 23.2235 69.0431 22.5739C69.2345 21.9475 69.394 21.4603 69.5217 21.1587C69.8088 20.4859 70.1279 19.9059 70.4469 19.4419C70.8298 18.9547 71.1807 18.6067 71.4679 18.3979C72.0103 18.0035 72.5846 17.8179 73.1908 17.8179C73.5098 17.8179 73.8608 17.8875 74.2436 18.0035L74.5946 18.0963C74.7222 18.0499 74.8179 17.9803 74.8817 17.8411C74.9137 17.7251 74.9456 17.6323 74.9775 17.5859C75.0413 17.4931 75.0732 17.3771 75.137 17.2379C75.1689 17.1218 75.2327 16.9826 75.3284 16.8666C75.5837 16.4722 75.9346 16.2866 76.3494 16.2866C76.9556 16.2866 77.3065 16.565 77.4661 17.0986C77.5299 17.4931 77.5937 19.6739 77.6894 23.6643C77.6894 24.2444 77.6894 24.6156 77.7213 24.778C77.7213 25.8452 77.8808 26.9124 78.2318 27.9564C78.3275 28.1884 78.4232 28.3508 78.5189 28.4436C78.6466 28.5364 78.838 28.5828 79.1571 28.5596H79.2528C79.4442 28.5596 79.6356 28.606 79.7952 28.722C79.9547 28.838 80.0185 28.954 79.9866 29.07C79.9866 29.3716 79.7633 29.5572 79.3166 29.6732ZM71.0531 25.8684C71.1807 25.7756 71.3084 25.6828 71.4041 25.5668C71.4998 25.4508 71.5636 25.358 71.6274 25.3116C72.3293 24.198 72.9993 22.8523 73.5736 21.2515C73.7012 20.9499 73.7332 20.6019 73.7332 20.2075C73.7332 20.0451 73.7013 19.7899 73.6374 19.4651C73.5736 19.2563 73.4779 19.1403 73.2865 19.1171H73.1908C73.0631 19.1171 72.9674 19.1867 72.8398 19.3027C72.4569 19.6507 72.2336 19.9059 72.1698 20.0451C71.1488 21.4835 70.6383 22.9915 70.6383 24.5692C70.6383 24.8476 70.6383 25.0796 70.6702 25.2188C70.6702 25.3812 70.6702 25.5204 70.7022 25.6132C70.766 25.706 70.8936 25.7988 71.0531 25.8684Z" fill="#171238"/>
</svg>
