<svg width="80" height="42" viewBox="0 0 80 42" fill="none" xmlns="http://www.w3.org/2000/svg">
<g clip-path="url(#clip0_1409_72)">
<path d="M1.97852 1C2.05954 1.00004 2.1184 1.01195 2.19629 1.04688H2.19531C1.91118 1.28815 1.70717 1.59001 1.5791 1.93359C1.6091 1.76455 1.643 1.59112 1.68066 1.41309C1.72384 1.20914 1.77575 1.09608 1.80469 1.04688C1.82157 1.02678 1.82939 1.02177 1.83203 1.02051C1.83934 1.01706 1.87941 1 1.97852 1Z" stroke="black" stroke-width="2"/>
<path d="M21.3125 14.1985C21.2824 14.1985 21.2527 14.1936 21.2227 14.1917L21.3125 14.0481M21.3125 14.1985V14.0481M21.3125 14.1985C21.48 14.1985 21.6476 14.1595 21.7881 14.1008L21.9189 14.0364M21.3125 14.1985V14.0481M21.3125 14.0481L21.4932 13.7581L21.7227 13.7131L21.9189 14.0364M21.9189 14.0364C22.1104 13.9204 22.2061 13.7808 22.2061 13.6184M21.9189 14.0364L21.7295 13.7112L22.2061 13.6184M22.2061 13.6184C22.1741 13.4562 22.0466 13.317 21.8555 13.178M22.2061 13.6184H21.6758L21.6299 13.5393L21.8555 13.178M21.8555 13.178C21.682 13.0699 21.5081 13.0039 21.3047 12.9797L21.6133 13.51L21.8555 13.178ZM21.3125 13.0344L21.6055 13.5198L21.5352 13.6184H21.3125M21.3125 13.0344V13.6184M21.3125 13.0344L21.2783 12.9788C21.2279 12.9737 21.1757 12.969 21.1211 12.969C20.8979 12.969 20.706 13.0151 20.5146 13.1311C20.3234 13.247 20.2276 13.3865 20.2275 13.5256C20.2275 13.5566 20.2331 13.5876 20.2422 13.6184H20.8105M21.3125 13.0344V13.6184M21.3125 13.6184H21.1211M21.1211 13.1194L20.8105 13.6184M21.1211 13.1194V13.6184M21.1211 13.1194L20.8105 13.6184M21.1211 13.1194V13.6184M20.8105 13.6184H21.1211M21.4229 13.7717L21.1221 14.1858C20.9954 14.1684 20.8707 14.1335 20.752 14.0813L20.5791 13.9895C20.5588 13.9769 20.5411 13.9615 20.5225 13.9485L21.4229 13.7717ZM21.666 13.6184H21.5811L21.623 13.5491L21.666 13.6184Z" stroke="black" stroke-width="7"/>
<mask id="path-3-inside-1_1409_72" fill="white">
<path d="M30.6926 28.0724C30.1822 28.374 29.6398 28.5364 29.0974 28.5364C28.2997 28.5364 27.6297 28.1884 27.0554 27.5156C26.5769 26.8892 26.2578 25.9844 26.0664 24.8012C26.0026 23.6411 26.1621 22.4579 26.545 21.2747C26.9278 20.0915 27.534 18.9779 28.3955 17.9339C28.6188 17.6323 28.9059 17.4002 29.1931 17.2146C29.5121 17.029 29.7993 16.9362 30.1184 16.9362C30.3098 16.9362 30.5969 16.9826 30.916 17.0986C31.1712 17.1914 31.3946 17.377 31.586 17.6323C31.7774 17.8875 31.8731 18.1195 31.8731 18.3283C31.8731 18.5139 31.7774 18.6531 31.586 18.7691C31.3946 18.8851 31.1712 18.9083 30.916 18.8851C30.6288 18.8387 30.4693 18.7923 30.4055 18.7691C30.2779 18.6995 30.1822 18.6763 30.1184 18.6763C29.9907 18.6763 29.895 18.7459 29.7674 18.8851L29.5121 19.1867C28.3955 20.9035 27.8212 22.6667 27.8212 24.4996C27.8212 25.4276 28.0445 26.2396 28.4912 26.9588C28.6188 27.1444 28.8421 27.2372 29.0974 27.2372C29.2569 27.2372 29.4802 27.1908 29.7036 27.0748C29.9269 26.9124 30.4374 26.4948 31.235 25.8452C32.2241 24.9636 33.1493 24.0123 34.0427 23.0147C34.936 22.0171 35.4146 21.4603 35.5103 21.3907C35.7656 21.1123 36.0527 20.9963 36.4037 20.9963C36.6908 20.9963 36.9142 21.0427 37.0737 21.1587C37.2332 21.2515 37.297 21.3907 37.297 21.5531C37.297 21.6923 37.2651 21.8083 37.2013 21.8547C37.1694 21.9243 37.1056 22.0171 36.978 22.1331C36.0527 23.2003 35.4146 23.9195 35.0637 24.3139C34.7127 24.6852 34.0108 25.358 33.0217 26.2628C32.4474 26.7732 31.9369 27.214 31.4584 27.562C31.2669 27.7244 31.0117 27.8868 30.6926 28.0724Z"/>
</mask>
<path d="M30.6926 28.0724L29.687 26.3435L29.6751 26.3505L30.6926 28.0724ZM27.0554 27.5156L25.4661 28.7296L25.499 28.7728L25.5342 28.814L27.0554 27.5156ZM26.0664 24.8012L24.0694 24.911L24.0752 25.0164L24.0921 25.1205L26.0664 24.8012ZM26.545 21.2747L28.4478 21.8904L28.4479 21.8903L26.545 21.2747ZM28.3955 17.9339L29.9381 19.2068L29.9716 19.1662L30.0029 19.1239L28.3955 17.9339ZM29.1931 17.2146L28.1873 15.4859L28.1469 15.5094L28.1076 15.5348L29.1931 17.2146ZM30.916 17.0986L31.5995 15.219L31.5993 15.2189L30.916 17.0986ZM31.586 17.6323L29.9858 18.832L29.986 18.8323L31.586 17.6323ZM30.916 18.8851L30.597 20.8595L30.6657 20.8705L30.7349 20.8768L30.916 18.8851ZM30.4055 18.7691L29.4478 20.5248L29.5802 20.5971L29.722 20.6486L30.4055 18.7691ZM29.7674 18.8851L28.2931 17.5336L28.2664 17.5627L28.2409 17.5929L29.7674 18.8851ZM29.5121 19.1867L27.9856 17.8945L27.9042 17.9906L27.8355 18.0962L29.5121 19.1867ZM28.4912 26.9588L26.7922 28.014L26.8168 28.0535L26.8431 28.0918L28.4912 26.9588ZM29.7036 27.0748L30.6253 28.8497L30.7585 28.7805L30.8799 28.6922L29.7036 27.0748ZM31.235 25.8452L32.498 27.3959L32.5325 27.3678L32.5658 27.3382L31.235 25.8452ZM34.0427 23.0147L35.5326 24.3489L35.5327 24.3488L34.0427 23.0147ZM35.5103 21.3907L36.6866 23.0081L36.8488 22.8902L36.9843 22.7424L35.5103 21.3907ZM37.0737 21.1587L35.8974 22.7761L35.9798 22.8361L36.0679 22.8874L37.0737 21.1587ZM37.2013 21.8547L36.025 20.2372L35.6014 20.5452L35.3832 21.0213L37.2013 21.8547ZM36.978 22.1331L35.6327 20.6532L35.5447 20.7331L35.4669 20.8229L36.978 22.1331ZM35.0637 24.3139L36.5171 25.6878L36.5378 25.6658L36.5579 25.6433L35.0637 24.3139ZM33.0217 26.2628L34.3503 27.7577L34.361 27.7482L34.3716 27.7385L33.0217 26.2628ZM31.4584 27.562L30.2821 25.9445L30.2217 25.9884L30.1648 26.0366L31.4584 27.562ZM30.6926 28.0724L29.6751 26.3505C29.4281 26.4965 29.2332 26.5364 29.0974 26.5364V28.5364V30.5364C30.0464 30.5364 30.9363 30.2514 31.7101 29.7942L30.6926 28.0724ZM29.0974 28.5364V26.5364C28.9847 26.5364 28.8408 26.5266 28.5766 26.2171L27.0554 27.5156L25.5342 28.814C26.4186 29.8501 27.6147 30.5364 29.0974 30.5364V28.5364ZM27.0554 27.5156L28.6447 26.3015C28.4539 26.0516 28.2087 25.5202 28.0407 24.4818L26.0664 24.8012L24.0921 25.1205C24.3069 26.4485 24.6999 27.7267 25.4661 28.7296L27.0554 27.5156ZM26.0664 24.8012L28.0634 24.6913C28.0139 23.7919 28.1359 22.8544 28.4478 21.8904L26.545 21.2747L24.6422 20.6589C24.1883 22.0613 23.9913 23.4902 24.0694 24.911L26.0664 24.8012ZM26.545 21.2747L28.4479 21.8903C28.7509 20.9536 29.2325 20.0619 29.9381 19.2068L28.3955 17.9339L26.8529 16.6609C25.8355 17.8939 25.1047 19.2293 24.6421 20.659L26.545 21.2747ZM28.3955 17.9339L30.0029 19.1239C30.034 19.082 30.1099 19.0033 30.2786 18.8943L29.1931 17.2146L28.1076 15.5348C27.7019 15.797 27.2037 16.1825 26.7881 16.7438L28.3955 17.9339ZM29.1931 17.2146L30.1989 18.9433C30.2592 18.9082 30.2691 18.9096 30.2412 18.9181C30.2269 18.9225 30.2069 18.9275 30.1828 18.9311C30.1587 18.9348 30.1366 18.9362 30.1184 18.9362V16.9362V14.9362C29.3589 14.9362 28.7265 15.1722 28.1873 15.4859L29.1931 17.2146ZM30.1184 16.9362V18.9362C30.0875 18.9362 30.0711 18.9344 30.0705 18.9343C30.0689 18.9342 30.0761 18.9349 30.0913 18.9378C30.1226 18.9438 30.1721 18.9562 30.2327 18.9782L30.916 17.0986L31.5993 15.2189C31.1033 15.0386 30.5838 14.9362 30.1184 14.9362V16.9362ZM30.916 17.0986L30.2325 18.9781C30.0257 18.9029 29.9567 18.7932 29.9858 18.832L31.586 17.6323L33.1862 16.4326C32.8325 15.9607 32.3168 15.4798 31.5995 15.219L30.916 17.0986ZM31.586 17.6323L29.986 18.8323C30.0065 18.8596 29.9834 18.8354 29.9525 18.7603C29.9202 18.6822 29.8731 18.5326 29.8731 18.3283H31.8731H33.8731C33.8731 17.5119 33.5077 16.8612 33.186 16.4323L31.586 17.6323ZM31.8731 18.3283H29.8731C29.8731 18.0507 29.9528 17.7448 30.1321 17.4731C30.2946 17.2269 30.4769 17.1026 30.5494 17.0587L31.586 18.7691L32.6226 20.4795C33.2165 20.1195 33.8731 19.4151 33.8731 18.3283H31.8731ZM31.586 18.7691L30.5494 17.0587C30.8782 16.8594 31.1517 16.8982 31.0971 16.8933L30.916 18.8851L30.7349 20.8768C31.1907 20.9183 31.911 20.9107 32.6226 20.4795L31.586 18.7691ZM30.916 18.8851L31.235 16.9107C31.1368 16.8948 31.0762 16.8815 31.0481 16.8746C31.0341 16.8713 31.0301 16.8699 31.0349 16.8714C31.0383 16.8724 31.0576 16.878 31.089 16.8895L30.4055 18.7691L29.722 20.6486C29.9423 20.7288 30.2336 20.8007 30.597 20.8595L30.916 18.8851ZM30.4055 18.7691L31.3632 17.0133C31.0589 16.8473 30.6287 16.6763 30.1184 16.6763V18.6763V20.6763C29.9152 20.6763 29.7573 20.6407 29.658 20.6106C29.5549 20.5794 29.4843 20.5448 29.4478 20.5248L30.4055 18.7691ZM30.1184 18.6763V16.6763C29.0827 16.6763 28.4735 17.3368 28.2931 17.5336L29.7674 18.8851L31.2417 20.2365C31.2693 20.2064 31.1787 20.3149 31.0007 20.4258C30.7717 20.5685 30.4651 20.6763 30.1184 20.6763V18.6763ZM29.7674 18.8851L28.2409 17.5929L27.9856 17.8945L29.5121 19.1867L31.0386 20.4788L31.2939 20.1772L29.7674 18.8851ZM29.5121 19.1867L27.8355 18.0962C26.5416 20.0856 25.8212 22.2219 25.8212 24.4996H27.8212H29.8212C29.8212 23.1114 30.2494 21.7213 31.1887 20.2771L29.5121 19.1867ZM27.8212 24.4996H25.8212C25.8212 25.7685 26.1325 26.9519 26.7922 28.014L28.4912 26.9588L30.1902 25.9035C29.9565 25.5272 29.8212 25.0866 29.8212 24.4996H27.8212ZM28.4912 26.9588L26.8431 28.0918C27.4456 28.9681 28.3862 29.2372 29.0974 29.2372V27.2372V25.2372C29.298 25.2372 29.792 25.3206 30.1393 25.8257L28.4912 26.9588ZM29.0974 27.2372V29.2372C29.597 29.2372 30.1348 29.1044 30.6253 28.8497L29.7036 27.0748L28.782 25.2998C28.8136 25.2833 28.8481 25.2701 28.8883 25.26C28.9242 25.2509 28.9931 25.2372 29.0974 25.2372V27.2372ZM29.7036 27.0748L30.8799 28.6922C31.1614 28.4876 31.7385 28.0145 32.498 27.3959L31.235 25.8452L29.972 24.2944C29.1364 24.975 28.6924 25.3372 28.5273 25.4573L29.7036 27.0748ZM31.235 25.8452L32.5658 27.3382C33.6251 26.394 34.6038 25.386 35.5326 24.3489L34.0427 23.0147L32.5528 21.6804C31.6948 22.6385 30.8231 23.5332 29.9043 24.3521L31.235 25.8452ZM34.0427 23.0147L35.5327 24.3488C35.9757 23.8541 36.339 23.4427 36.5678 23.1863C36.6891 23.0504 36.7732 22.9573 36.8295 22.8969C36.8581 22.8662 36.8683 22.856 36.866 22.8583C36.8647 22.8596 36.8522 22.8721 36.8315 22.8909C36.8171 22.9039 36.7642 22.9517 36.6866 23.0081L35.5103 21.3907L34.334 19.7732C34.1855 19.8811 34.0722 19.9955 34.0468 20.0207C33.9965 20.0707 33.9467 20.1232 33.903 20.17C33.8147 20.2649 33.7053 20.3864 33.5834 20.523C33.3256 20.8118 33.0031 21.1776 32.5528 21.6805L34.0427 23.0147ZM35.5103 21.3907L36.9843 22.7424C36.948 22.782 36.8589 22.8625 36.7148 22.9248C36.572 22.9866 36.4542 22.9963 36.4037 22.9963V20.9963V18.9963C35.5105 18.9963 34.6826 19.3341 34.0363 20.0389L35.5103 21.3907ZM36.4037 20.9963V22.9963C36.4477 22.9963 36.4134 23.0007 36.3314 22.9815C36.2434 22.9609 36.0786 22.9079 35.8974 22.7761L37.0737 21.1587L38.25 19.5412C37.5817 19.0551 36.845 18.9963 36.4037 18.9963V20.9963ZM37.0737 21.1587L36.0679 22.8874C35.8597 22.7662 35.6392 22.5661 35.4839 22.2774C35.3337 21.9982 35.297 21.7345 35.297 21.5531H37.297H39.297C39.297 20.7677 38.9279 19.9236 38.0795 19.43L37.0737 21.1587ZM37.297 21.5531H35.297C35.297 21.4854 35.303 21.3419 35.3604 21.1542C35.4071 21.0014 35.5621 20.5738 36.025 20.2372L37.2013 21.8547L38.3776 23.4721C38.9043 23.0891 39.1072 22.5803 39.1858 22.3231C39.275 22.031 39.297 21.7599 39.297 21.5531H37.297ZM37.2013 21.8547L35.3832 21.0213C35.4922 20.7834 35.6186 20.666 35.6327 20.6532L36.978 22.1331L38.3234 23.6129C38.5927 23.3681 38.8466 23.0651 39.0194 22.688L37.2013 21.8547ZM36.978 22.1331L35.4669 20.8229C34.5489 21.8817 33.9167 22.5942 33.5695 22.9844L35.0637 24.3139L36.5579 25.6433C36.9125 25.2447 37.5566 24.5188 38.4891 23.4432L36.978 22.1331ZM35.0637 24.3139L33.6103 22.9399C33.3139 23.2535 32.6596 23.8834 31.6718 24.7871L33.0217 26.2628L34.3716 27.7385C35.362 26.8325 36.1115 26.1168 36.5171 25.6878L35.0637 24.3139ZM33.0217 26.2628L31.6931 24.7678C31.1183 25.2787 30.673 25.6602 30.2821 25.9445L31.4584 27.562L32.6347 29.1794C33.2009 28.7677 33.7765 28.2676 34.3503 27.7577L33.0217 26.2628ZM31.4584 27.562L30.1648 26.0366C30.1172 26.077 29.9931 26.1655 29.6871 26.3435L30.6926 28.0724L31.6982 29.8012C32.0303 29.608 32.4166 29.3717 32.752 29.0873L31.4584 27.562Z" fill="black" mask="url(#path-3-inside-1_1409_72)"/>
<path d="M36.8711 38.049C36.8711 38.3154 36.87 38.4974 36.8662 38.6261H36.7549C36.5946 38.6261 36.5205 38.5984 36.4971 38.587C36.486 38.5817 36.4812 38.5778 36.4795 38.5763L36.4629 38.5538C36.7061 38.2268 36.8239 37.8462 36.8691 37.4738C36.8693 37.6568 36.8711 37.8487 36.8711 38.049ZM38.7275 5.29504C38.5127 5.93604 38.3171 6.62046 38.1436 7.35266L38.2246 6.74231C38.3363 6.04292 38.4923 5.55939 38.6113 5.30774C38.6161 5.30531 38.6226 5.30403 38.6299 5.3009L38.7168 5.29407C38.7205 5.29422 38.724 5.29479 38.7275 5.29504Z" stroke="black" stroke-width="2"/>
<path d="M51.9941 22.6522L52.7959 22.1854C52.8523 22.1526 52.9064 22.1151 52.96 22.076C52.5303 23.304 52.223 24.5832 52.0361 25.9149L52.0303 25.9559L52.0283 25.9969L51.9961 26.5536L51.9941 26.5819V26.6112C51.9942 26.779 52.0074 26.9455 52.0332 27.1083C51.7835 26.8152 51.6583 26.5704 51.6152 26.4139C51.4921 25.5805 51.4102 24.8943 51.4102 24.2909C51.4102 23.6275 51.4404 23.0251 51.5283 22.3856L51.5322 22.3544C51.5427 22.2557 51.5542 22.1473 51.5664 22.0292L51.9941 22.6522ZM42.9238 18.8163C43.0759 18.8654 43.3496 19.0106 43.6514 19.2108C43.7912 19.3036 43.9181 19.3959 44.0166 19.4725C44.1295 19.5605 44.1653 19.5969 44.1533 19.5839L44.1611 19.5927C44.5763 20.0354 45.1282 20.7602 45.4844 21.7167L45.4883 21.7264C45.4913 21.7342 45.4931 21.743 45.4961 21.7509C45.374 21.5109 45.231 21.2757 45.0674 21.0585C44.6437 20.496 43.9686 19.8946 43.0537 19.7938L42.2061 19.7001L42.1074 20.0575L42.1689 19.7577L42.1836 19.6874L42.1875 19.6151L42.2197 19.0585L42.2217 19.0302V19.0009C42.2217 18.8588 42.1994 18.7115 42.1543 18.5673L42.9238 18.8163ZM42.6465 15.6571C42.6455 15.6606 42.6446 15.6642 42.6436 15.6678C42.6321 15.7086 42.6195 15.755 42.6074 15.8075C42.6001 15.8395 42.5899 15.8778 42.5742 15.9364C42.5902 15.8364 42.6149 15.7437 42.6465 15.6444V15.6571ZM58.5771 15.3641C58.5802 15.3654 58.5831 15.3668 58.5859 15.368C58.6181 15.4968 58.6462 15.6839 58.6562 15.9364L58.5215 15.3456C58.5425 15.3527 58.5616 15.3576 58.5771 15.3641ZM42.6826 15.5409C42.6824 15.5415 42.682 15.5427 42.6816 15.5438L42.6807 15.5458C42.6812 15.5441 42.6814 15.5427 42.6816 15.5419L42.6826 15.5409ZM42.8164 15.2382C42.8118 15.2463 42.8087 15.2523 42.8066 15.2557L42.7178 15.3837L42.7227 15.3553C42.726 15.3311 42.7356 15.2806 42.8076 15.1669C42.8138 15.1657 42.8212 15.1642 42.8291 15.163C42.838 15.1616 42.8478 15.1622 42.8584 15.161C42.8406 15.1942 42.8267 15.2198 42.8164 15.2382Z" stroke="black" stroke-width="2"/>
<path d="M63.8423 14.1985C63.8119 14.1985 63.7818 14.1936 63.7515 14.1917L63.8423 14.0481M63.8423 14.1985V14.0481M63.8423 14.1985C64.0097 14.1985 64.1593 14.1595 64.3042 14.1008L64.4487 14.0364M63.8423 14.1985V14.0481M63.8423 14.0481L64.0229 13.7581L64.2524 13.7131L64.4487 14.0364M64.4487 14.0364C64.6401 13.9204 64.7358 13.7808 64.7358 13.6184M64.4487 14.0364L64.2886 13.7063L64.7358 13.6184M64.7358 13.6184C64.7039 13.4562 64.5764 13.317 64.3853 13.178M64.7358 13.6184H64.2466L64.186 13.4954L64.3853 13.178M64.3853 13.178C64.2445 13.0902 64.1026 13.0327 63.9458 13.0002L64.1733 13.468L64.3853 13.178ZM63.8423 13.0354L64.1353 13.5198L64.0649 13.6184H63.8423M63.8423 13.0354V13.6184M63.8423 13.0354L63.8071 12.9778C63.757 12.9728 63.7051 12.969 63.6509 12.969C63.4275 12.969 63.2358 13.0151 63.0444 13.1311C62.8532 13.247 62.7574 13.3865 62.7573 13.5256C62.7573 13.5566 62.7629 13.5876 62.772 13.6184H63.3403M63.8423 13.0354V13.6184M63.8423 13.6184H63.6509M63.6509 13.1194L63.3403 13.6184M63.6509 13.1194V13.6184M63.6509 13.1194L63.3403 13.6184M63.6509 13.1194V13.6184M63.3403 13.6184H63.6509M63.9526 13.7717L63.6519 14.1858C63.5252 14.1684 63.4004 14.1335 63.2817 14.0813L63.1089 13.9895C63.0889 13.977 63.0717 13.9613 63.0532 13.9485L63.9526 13.7717ZM64.1958 13.6184H64.1108L64.1528 13.5491L64.1958 13.6184Z" stroke="black" stroke-width="5"/>
<path d="M76.3496 17.2866C76.412 17.2866 76.4509 17.2927 76.4717 17.2974C76.4758 17.3051 76.48 17.3168 76.4863 17.3325C76.4882 17.3535 76.491 17.3783 76.4932 17.4067C76.5003 17.5002 76.5076 17.6241 76.5156 17.7808C76.5305 18.0725 76.545 18.4632 76.5615 18.9556L75.0869 20.4888C74.9419 20.6394 74.805 20.7995 74.6787 20.9731C74.7216 20.704 74.7334 20.4432 74.7334 20.2075C74.7334 19.9461 74.6856 19.6145 74.6182 19.272L74.6084 19.2222L74.5938 19.1733L74.5771 19.1255L74.6416 19.1431L74.9365 19.0356C75.2567 18.9192 75.5922 18.6912 75.791 18.2573L75.8242 18.1851L75.8457 18.1069C75.8506 18.0893 75.8537 18.0742 75.8574 18.062C75.9182 17.9588 75.9586 17.8665 75.9814 17.811C76.0209 17.7153 76.0244 17.7018 76.0459 17.6548L76.0801 17.5806L76.1006 17.5054C76.1012 17.5038 76.1024 17.5018 76.1035 17.4995C76.1041 17.4983 76.1042 17.4971 76.1045 17.4966L76.1367 17.4585L76.168 17.4097C76.2195 17.3302 76.2567 17.3078 76.2666 17.3022C76.2752 17.2975 76.2961 17.2866 76.3496 17.2866Z" stroke="black" stroke-width="2"/>
</g>
<defs>
<clipPath id="clip0_1409_72">
<rect width="80" height="42" fill="white"/>
</clipPath>
</defs>
</svg>
