<svg width="209" height="42" viewBox="0 0 209 42" fill="none" xmlns="http://www.w3.org/2000/svg">
<g clip-path="url(#clip0_14_138)">
<mask id="mask0_14_138" style="mask-type:luminance" maskUnits="userSpaceOnUse" x="-18" y="-54" width="242" height="151">
<path d="M223.885 -53.1624H-17.2549V96.6564H223.885V-53.1624Z" fill="white"/>
</mask>
<g mask="url(#mask0_14_138)">
<path d="M4.49746 41.1242C4.1465 40.8458 3.82745 40.405 3.44459 39.8018C3.09363 39.1754 2.80648 38.5722 2.61505 37.9922C2.16838 36.8089 1.78551 35.4633 1.49837 33.9785C1.1155 32.0065 0.828353 29.3384 0.605017 25.9976C0.413585 23.5615 0.317871 20.9399 0.317871 18.1327C0.317871 14.699 0.477395 7.9941 0.764543 3.70204C0.796448 3.12203 0.892165 2.54202 1.01979 1.93881C1.0836 1.6372 1.17931 1.382 1.30693 1.1964C1.53027 0.894794 1.84932 0.732391 2.296 0.732391C2.58314 0.732391 2.80648 0.801993 3.02982 0.917995C3.41268 1.1732 3.63602 1.4516 3.63602 1.82281C3.63602 2.07801 3.5084 2.26361 3.28506 2.44922C2.96601 2.65802 2.77457 2.98282 2.74267 3.44683C2.48743 7.15889 2.296 13.1446 2.20028 15.6734C2.13647 18.0631 2.10456 19.8263 2.10456 21.0095C2.10456 24.1879 2.23219 27.1576 2.51933 29.8952C2.80648 32.6329 3.31697 35.2545 4.08269 37.7834C4.21031 38.2242 4.43365 38.7346 4.7208 39.2914C5.00795 39.8482 5.29509 40.2426 5.61414 40.4978C5.77367 40.6138 5.9332 40.6834 6.09272 40.6834C6.25225 40.6834 6.44368 40.5906 6.63511 40.405C7.43275 39.6858 8.13466 38.6186 8.74086 37.2265C9.98517 34.5585 11.0699 31.0088 11.9952 26.5544C13.2714 20.6383 13.9414 14.3742 13.9733 7.7853V7.7157C13.9733 7.48369 13.9414 7.32129 13.8457 7.22849C13.7819 7.13569 13.6862 7.04288 13.5586 6.97328C13.4309 6.90368 13.3033 6.85728 13.2714 6.83408C12.9843 6.62528 12.8566 6.46288 12.8566 6.34688C12.8566 6.06847 12.9843 5.85967 13.2714 5.67407C13.5266 5.48846 13.8457 5.41886 14.1967 5.41886L14.5795 5.44206C15.3772 5.65087 15.7919 6.34688 15.8557 7.53009V7.62289C15.8876 7.9245 15.8876 8.38851 15.8876 9.01492C15.8876 11.9846 15.6324 15.4414 15.09 19.4087C14.6114 23.1439 14.0052 26.5312 13.2714 29.5704C12.5376 32.6097 11.4847 35.4865 10.1447 38.2242C9.76183 39.0594 9.18753 39.8714 8.48562 40.637C7.7518 41.4026 6.98607 41.7738 6.18844 41.7738C5.61414 41.7506 5.03985 41.5418 4.49746 41.1242Z" fill="#171238"/>
<path d="M21.6305 14.931C21.3753 14.931 21.12 14.8614 20.8967 14.7222C20.6734 14.583 20.5458 14.4206 20.5458 14.2582C20.5458 14.119 20.6415 13.9798 20.8329 13.8638C21.0243 13.7478 21.2158 13.7014 21.4391 13.7014C21.7262 13.7014 21.9496 13.771 22.1729 13.9102C22.3643 14.0494 22.492 14.1886 22.5239 14.351C22.5239 14.5134 22.4282 14.6526 22.2367 14.7686C22.0772 14.8614 21.8539 14.931 21.6305 14.931ZM21.471 28.3872C20.9924 28.5728 20.5458 28.6656 20.1629 28.6656C19.3014 28.6656 18.6952 28.2944 18.3124 27.552C18.2486 27.436 18.2167 27.2736 18.1529 27.1112C18.121 26.9256 18.089 26.7864 18.0571 26.6936C17.9933 26.4848 17.9614 25.9976 17.9614 25.2088C17.9614 24.5359 17.9933 23.8631 18.089 23.1671C18.1529 22.6799 18.2805 21.9375 18.5038 20.9399C18.5676 20.6615 18.5995 20.2671 18.5995 19.7103C18.5995 19.2695 18.8867 18.8519 19.4929 18.4111C19.6205 18.3183 19.8119 18.2487 20.0034 18.2487C20.2267 18.2487 20.4181 18.2951 20.5458 18.3647C20.9605 18.5503 21.12 18.8055 20.9605 19.1071C20.5777 20.1047 20.2905 20.9631 20.1629 21.7287C19.78 23.4455 19.6524 24.7912 19.6843 25.8352C19.6843 26.508 19.8438 27.0416 20.1629 27.4128C20.4181 27.3664 20.6415 27.2968 20.801 27.204C20.9605 27.1112 21.1839 26.9488 21.4072 26.7632C22.9386 25.6496 24.3744 24.4199 25.7463 23.0975C26.0016 22.8191 26.2568 22.5639 26.5439 22.3319C26.7673 22.1463 27.0225 22.0535 27.3097 22.0535C27.6287 22.0535 27.8521 22.0999 28.0435 22.2159C28.2349 22.3319 28.3306 22.4711 28.3306 22.6567C28.3306 22.7959 28.2668 22.9351 28.1073 23.0975L26.9587 24.1415C25.7144 25.3248 24.4063 26.4152 23.0663 27.4128C22.492 27.8768 21.9815 28.1784 21.471 28.3872Z" fill="#171238"/>
<path d="M31.0105 28.8048C30.5001 29.1064 29.9577 29.2688 29.4153 29.2688C28.6176 29.2688 27.9476 28.9208 27.3733 28.248C26.8948 27.6216 26.5757 26.7168 26.3843 25.5336C26.3205 24.3735 26.48 23.1903 26.8629 22.0071C27.2457 20.8239 27.8519 19.7103 28.7134 18.6663C28.9367 18.3647 29.2238 18.1326 29.511 17.947C29.83 17.7614 30.1172 17.6686 30.4363 17.6686C30.6277 17.6686 30.9148 17.715 31.2339 17.831C31.4891 17.9238 31.7125 18.1094 31.9039 18.3647C32.0953 18.6199 32.191 18.8519 32.191 19.0607C32.191 19.2463 32.0953 19.3855 31.9039 19.5015C31.7125 19.6175 31.4891 19.6407 31.2339 19.6175C30.9467 19.5711 30.7872 19.5247 30.7234 19.5015C30.5958 19.4319 30.5001 19.4087 30.4363 19.4087C30.3086 19.4087 30.2129 19.4783 30.0853 19.6175L29.83 19.9191C28.7134 21.6359 28.1391 23.3991 28.1391 25.232C28.1391 26.16 28.3624 26.972 28.8091 27.6912C28.9367 27.8768 29.16 27.9696 29.4153 27.9696C29.5748 27.9696 29.7981 27.9232 30.0215 27.8072C30.2448 27.6448 30.7553 27.2272 31.5529 26.5776C32.542 25.696 33.4672 24.7447 34.3606 23.7471C35.2539 22.7495 35.7325 22.1927 35.8282 22.1231C36.0835 21.8447 36.3706 21.7287 36.7216 21.7287C37.0087 21.7287 37.2321 21.7751 37.3916 21.8911C37.5511 21.9839 37.6149 22.1231 37.6149 22.2855C37.6149 22.4247 37.583 22.5407 37.5192 22.5871C37.4873 22.6567 37.4235 22.7495 37.2959 22.8655C36.3706 23.9327 35.7325 24.6519 35.3816 25.0463C35.0306 25.4176 34.3287 26.0904 33.3396 26.9952C32.7653 27.5056 32.2548 27.9464 31.7763 28.2944C31.5848 28.4568 31.3296 28.6192 31.0105 28.8048Z" fill="#171238"/>
<path d="M37.0726 40.3586C36.5302 40.3586 36.1474 40.173 35.924 39.8018C35.7964 39.6394 35.7645 39.4538 35.7645 39.245C35.7645 39.0594 35.8283 38.897 35.924 38.7578C36.1155 38.549 36.2112 38.2241 36.2112 37.8065C36.2112 36.4609 36.2112 35.4401 36.1793 34.7905V32.5401V29.6632V25.5568L36.2112 23.3295L36.2431 22.9815C36.3069 20.7079 36.3707 19.0375 36.4664 18.0166C36.5941 15.4182 36.7536 13.4462 36.945 12.0774C35.3498 12.2398 33.8502 12.3326 32.3507 12.3326C31.5211 12.3326 30.7235 12.3094 29.8939 12.2398C28.6177 12.1238 27.5649 11.8686 26.7672 11.4973C26.0653 11.1725 25.7144 10.8013 25.7144 10.3837C25.7144 10.1981 25.8101 10.0357 25.9696 9.89653C26.1291 9.75732 26.3525 9.64132 26.6396 9.59492C26.7672 9.57172 26.8948 9.57172 27.1182 9.57172C27.501 9.57172 27.7563 9.68772 27.9158 9.91973C27.9796 10.0125 28.0115 10.1053 28.0434 10.1981C28.0754 10.2909 28.1073 10.3837 28.1392 10.4765C28.2668 10.7549 28.4582 10.9405 28.8092 11.0333C29.1282 11.1261 29.6068 11.1957 30.2449 11.2885C31.1383 11.3581 31.9997 11.3813 32.8292 11.3813C34.1693 11.3813 35.4136 11.3349 36.6579 11.2189L37.0726 11.1493V10.9869L37.5512 7.34449C37.6788 6.53247 37.8703 5.90606 38.0617 5.53486C38.1893 5.30286 38.4127 5.14046 38.7317 5.04765L39.0189 5.02445C39.2741 5.02445 39.4974 5.09405 39.6889 5.21006C40.0717 5.44206 40.2313 5.69726 40.1036 6.02207C39.6251 7.36769 39.2422 8.94531 38.955 10.8013V10.9637C39.3379 10.9405 40.2951 10.8013 41.8903 10.5693C43.4856 10.3141 44.6661 10.1053 45.4318 9.89653C47.1228 9.45572 48.1757 9.08451 48.6223 8.80611C48.8776 8.62051 49.1647 8.52771 49.4838 8.52771C49.8347 8.52771 50.09 8.62051 50.2495 8.78291C50.409 8.94531 50.4409 9.15411 50.3452 9.36292C50.2176 9.61812 49.8028 9.85012 49.1328 10.0589C48.4628 10.2677 47.2504 10.5693 45.4956 10.9637C44.7618 11.1261 43.6132 11.3117 42.0499 11.5438C40.4865 11.7526 39.4017 11.8918 38.8593 11.9614C38.7317 12.6342 38.6679 13.3998 38.5722 14.2814C38.5084 15.1398 38.4446 15.743 38.4127 16.091C38.3488 16.8798 38.285 17.4598 38.2531 17.8542C38.1893 18.5503 38.1255 19.6407 38.0936 21.1255L37.9979 22.5175L37.966 24.884C37.966 25.6264 37.966 26.1832 37.9979 26.5544V29.3384L38.1255 34.5585L38.1574 35.8809C38.1893 36.5073 38.1893 37.4817 38.1893 38.781C38.1893 39.2218 38.1893 39.5234 38.1574 39.7322C38.0617 40.173 37.7746 40.4282 37.2641 40.4514H37.0726V40.3586Z" fill="#171238"/>
<path d="M45.0488 30.1504C44.7298 30.4984 44.2512 30.7304 43.7407 30.7304C43.2621 30.7304 42.8155 30.5912 42.4964 30.2432C42.2731 29.988 41.9859 29.6864 41.7945 29.2224C41.4755 28.4568 41.2521 27.6216 41.1564 26.7864C41.0607 25.9512 41.0607 24.9071 41.0607 23.7703C41.0607 23.2599 41.1883 22.5407 41.2521 21.5431L41.5074 20.2903L41.5393 19.7335C41.5393 19.4551 41.3478 19.3391 40.9331 19.3391C40.7735 19.3391 40.5502 19.3623 40.3269 19.4087C40.1035 19.4551 39.944 19.4783 39.9121 19.4783C39.6249 19.4783 39.3697 19.4319 39.1783 19.3159C38.9549 19.1999 38.8592 19.0607 38.8273 18.8983L38.7954 18.8055C38.7954 18.5271 39.0507 18.2718 39.593 18.0862C39.6888 18.063 39.944 18.0398 40.3588 17.9934C40.7735 17.947 41.1245 17.8774 41.3797 17.7614C41.635 17.6454 41.7626 17.4598 41.7945 17.1814C41.8264 17.0422 41.8583 16.8334 41.8902 16.6014C41.9221 16.3462 41.9859 16.1374 42.0498 15.9518C42.0817 15.7198 42.1774 15.511 42.3369 15.279C42.5283 15.0006 42.8474 14.8846 43.326 14.8846C43.5493 14.8846 43.7088 14.9078 43.8364 14.9542C44.2193 15.0702 44.4426 15.2558 44.4426 15.511C44.4426 15.6038 44.4107 15.7198 44.315 15.859C44.1236 16.2534 43.996 16.4854 43.9641 16.5318C43.9641 16.555 43.9322 16.6246 43.9003 16.7638C43.8683 16.903 43.8045 17.1118 43.7407 17.3902C45.4317 16.9494 46.8674 16.6478 48.016 16.439C48.7499 16.2766 49.4518 16.1838 50.1218 16.1838C50.9194 16.1838 51.5575 16.3462 52.0361 16.671C52.5147 16.9958 52.8018 17.4366 52.8975 17.9934C52.9294 18.0862 52.9295 18.2486 52.9295 18.4574C52.9295 18.6663 52.8975 18.9679 52.8337 19.3855C52.738 19.8495 52.6423 20.5223 52.5466 21.3575L52.5147 21.7055C52.5147 21.8447 52.5466 21.9607 52.6104 22.0535C52.7699 21.9607 52.8975 21.8215 52.9613 21.6823C53.0252 21.5431 53.0571 21.4503 53.0571 21.4039C53.759 19.8263 54.6523 18.3646 55.6733 17.0654C56.12 16.4622 56.5666 15.9982 57.0452 15.6502C57.3005 15.4182 57.5238 15.2558 57.7471 15.1398C57.9705 15.0238 58.1938 14.9774 58.481 14.9774C58.6086 14.9774 58.7681 15.0006 58.9595 15.0702C59.4381 15.1862 59.7253 15.395 59.821 15.6734C59.9167 15.9518 59.9805 16.3462 59.9805 16.8566V17.7846C59.9805 17.9934 59.9486 18.1558 59.8529 18.2486C59.7572 18.3414 59.5976 18.4342 59.3743 18.4574H59.2148C58.9914 18.4574 58.8 18.411 58.6086 18.3414C58.4491 18.2718 58.3214 18.1558 58.2576 18.0166C58.1938 17.9006 58.1619 17.7382 58.13 17.5294C58.0981 17.3438 58.0662 17.1814 58.0343 17.0422C57.8429 17.1118 57.6833 17.1814 57.5876 17.251C57.4919 17.3438 57.3962 17.4598 57.3005 17.6222C55.1309 20.3367 53.8228 23.3759 53.3442 26.7864L53.3123 27.3432C53.3123 27.7376 53.408 28.0624 53.5676 28.2944C53.5995 28.364 53.5995 28.4568 53.5995 28.5728C53.5995 28.712 53.5356 28.828 53.3761 28.9208C53.2166 29.0136 53.0252 29.06 52.8018 29.06C52.3551 29.06 52.0042 28.9208 51.749 28.6656C51.3342 28.2248 51.047 27.7608 50.9513 27.3432C50.8237 26.4848 50.728 25.7192 50.728 25.0232C50.728 24.3271 50.7599 23.6775 50.8556 22.9815C50.9194 22.3783 51.0151 21.3807 51.2066 19.9887L51.3342 18.9679V18.5271C51.3342 18.2486 51.3342 18.063 51.3023 17.9006C51.2385 17.715 51.1428 17.5526 51.0151 17.4366C50.8875 17.3206 50.6961 17.251 50.5046 17.251C50.1218 17.251 49.7389 17.2742 49.3561 17.3438C48.1756 17.5062 46.2293 17.9238 43.5493 18.5967C44.1236 18.7823 45.0169 19.4319 45.2084 19.6407C45.687 20.1511 46.3251 20.9863 46.7398 22.0999C47.1865 23.2599 47.1865 24.7215 46.9951 25.9048C46.8674 26.856 46.5803 28.0856 45.9103 29.0832C45.5274 29.6632 45.2722 29.8952 45.0488 30.1504ZM43.7726 28.828C44.1236 28.4104 44.666 27.552 44.9531 26.392C45.1765 25.5336 45.3679 24.6287 45.2403 23.8399C45.0808 22.9583 44.315 21.6359 43.2621 21.5199C43.1345 21.9839 42.7517 23.4687 42.7517 24.5591C42.7517 26.1136 42.8474 26.5544 43.0388 27.4128C43.0388 27.436 43.1026 27.7144 43.2302 27.9696C43.2941 28.1552 43.3898 28.364 43.4217 28.4104C43.4855 28.5264 43.6131 28.7584 43.7726 28.828Z" fill="#171238"/>
<path d="M64.1603 14.931C63.9051 14.931 63.6498 14.8614 63.4265 14.7222C63.2032 14.583 63.0755 14.4206 63.0755 14.2582C63.0755 14.119 63.1713 13.9798 63.3627 13.8638C63.5541 13.7478 63.7455 13.7014 63.9689 13.7014C64.256 13.7014 64.4794 13.771 64.7027 13.9102C64.8941 14.0494 65.0218 14.1886 65.0537 14.351C65.0537 14.5134 64.9579 14.6526 64.7665 14.7686C64.5751 14.8614 64.3837 14.931 64.1603 14.931ZM64.0008 28.3872C63.5222 28.5728 63.0755 28.6656 62.6927 28.6656C61.8312 28.6656 61.225 28.2944 60.8422 27.552C60.7784 27.436 60.7465 27.2736 60.6826 27.1112C60.6188 26.9488 60.6188 26.7864 60.5869 26.6936C60.5231 26.4848 60.4912 25.9976 60.4912 25.2088C60.4912 24.5359 60.5231 23.8631 60.6188 23.1671C60.6826 22.6799 60.8103 21.9375 61.0336 20.9399C61.0974 20.6615 61.1293 20.2671 61.1293 19.7103C61.1293 19.2695 61.4165 18.8519 62.0227 18.4111C62.1503 18.3183 62.3417 18.2487 62.5331 18.2487C62.7565 18.2487 62.9479 18.2951 63.0755 18.3647C63.4903 18.5503 63.6498 18.8055 63.4903 19.1071C63.1074 20.1047 62.8203 20.9631 62.6927 21.7287C62.3098 23.4455 62.1822 24.7912 62.2141 25.8352C62.2141 26.508 62.3736 27.0416 62.6927 27.4128C62.9479 27.3664 63.1713 27.2968 63.3308 27.204C63.4903 27.1112 63.7136 26.9488 63.937 26.7632C65.4684 25.6496 66.9042 24.4199 68.2761 23.0975C68.5313 22.8191 68.7866 22.5639 69.0737 22.3319C69.2971 22.1463 69.5523 22.0535 69.8395 22.0535C70.1585 22.0535 70.3818 22.0999 70.5733 22.2159C70.7647 22.3319 70.8604 22.4711 70.8604 22.6567C70.8604 22.7959 70.7966 22.9351 70.6371 23.0975L69.4885 24.1415C68.2442 25.3248 66.9361 26.4152 65.5961 27.4128C65.0218 27.8768 64.5113 28.1784 64.0008 28.3872Z" fill="#171238"/>
<path d="M79.6344 30.4056C79.3791 30.4752 79.1239 30.4984 78.9006 30.4984C78.071 30.4984 77.4967 30.1968 77.1777 29.5936C76.8267 29.0136 76.6353 28.2944 76.5396 27.436C76.38 26.0904 76.2205 24.2343 76.1248 21.9143C75.9015 22.1463 75.71 22.4015 75.5505 22.7031C75.391 23.0047 75.2634 23.2831 75.1357 23.5847C74.6252 24.8608 74.0829 25.9048 73.4767 26.6936C73.1576 27.1344 72.8386 27.5056 72.4876 27.7376C72.1047 28.016 71.69 28.132 71.2114 28.132C70.6052 28.132 70.0947 27.9 69.7118 27.4592C69.5523 27.2736 69.4247 27.0648 69.3609 26.7864C69.2971 26.5312 69.2333 26.3688 69.2014 26.2992C69.1056 25.9512 69.0737 25.6032 69.0737 25.2552C69.0737 24.6056 69.1695 23.9559 69.3609 23.3063C69.5523 22.6799 69.7118 22.1927 69.8395 21.8911C70.1266 21.2183 70.4457 20.6383 70.7647 20.1743C71.1476 19.6871 71.4985 19.3391 71.7857 19.1303C72.3281 18.7359 72.9024 18.5503 73.5086 18.5503C73.8276 18.5503 74.1786 18.6199 74.5614 18.7359L74.9124 18.8287C75.04 18.7823 75.1357 18.7127 75.1995 18.5735C75.2315 18.4575 75.2634 18.3647 75.2953 18.3183C75.3591 18.2255 75.391 18.1095 75.4548 17.9703C75.4867 17.8542 75.5505 17.715 75.6462 17.599C75.9015 17.2046 76.2524 17.019 76.6672 17.019C77.2734 17.019 77.6243 17.2974 77.7839 17.831C77.8477 18.2255 77.9115 20.4063 78.0072 24.3967C78.0072 24.9768 78.0072 25.348 78.0391 25.5104C78.0391 26.5776 78.1986 27.6448 78.5496 28.6888C78.6453 28.9208 78.741 29.0832 78.8367 29.176C78.9644 29.2688 79.1558 29.3152 79.4749 29.292H79.5706C79.762 29.292 79.9534 29.3384 80.113 29.4544C80.2725 29.5704 80.3363 29.6864 80.3044 29.8024C80.3044 30.104 80.0811 30.2896 79.6344 30.4056ZM71.3709 26.6008C71.4985 26.508 71.6262 26.4152 71.7219 26.2992C71.8176 26.1832 71.8814 26.0904 71.9452 26.044C72.6471 24.9304 73.3171 23.5847 73.8914 21.9839C74.019 21.6823 74.051 21.3343 74.051 20.9399C74.051 20.7775 74.0191 20.5223 73.9552 20.1975C73.8914 19.9887 73.7957 19.8727 73.6043 19.8495H73.5086C73.3809 19.8495 73.2852 19.9191 73.1576 20.0351C72.7747 20.3831 72.5514 20.6383 72.4876 20.7775C71.4666 22.2159 70.9561 23.7239 70.9561 25.3016C70.9561 25.58 70.9561 25.812 70.988 25.9512C70.988 26.1136 70.988 26.2528 71.02 26.3456C71.0838 26.4384 71.2114 26.5312 71.3709 26.6008Z" fill="#171238"/>
<path d="M95.0703 16.8769C95.7398 16.8769 96.287 17.1503 96.7285 17.6621C97.1929 18.1966 97.413 18.8064 97.4131 19.5537C97.4131 20.3215 97.1946 20.9791 96.7285 21.5156L96.7275 21.5146C96.2875 22.0479 95.7185 22.3466 95.0703 22.3466H91.5312V26.5927H90.6279V16.8769H95.0703ZM91.5312 21.4941H94.9541C95.381 21.4941 95.7444 21.3263 96.0732 20.956C96.3778 20.61 96.5322 20.1765 96.5322 19.6699C96.5322 19.1408 96.3785 18.6819 96.0713 18.2881L95.9551 18.1601C95.6763 17.8823 95.3497 17.7529 94.9541 17.7529H91.5312V21.4941Z" fill="#171238" stroke="#171238" stroke-width="0.25"/>
<path d="M101.824 16.8769V21.0068H107.315V16.8769H108.218V26.5927H107.315V21.8828H101.824V26.5927H100.92V16.8769H101.824Z" fill="#171238" stroke="#171238" stroke-width="0.25"/>
<path d="M116.263 16.6681C117.579 16.6682 118.642 17.1221 119.438 18.0578C120.232 18.9902 120.635 20.2277 120.635 21.758C120.635 23.2407 120.255 24.4326 119.437 25.3429C118.64 26.2544 117.578 26.7091 116.263 26.7091C114.947 26.7091 113.884 26.2552 113.088 25.3439C112.294 24.435 111.89 23.2432 111.89 21.758C111.89 20.2302 112.268 18.9916 113.086 18.0578L113.239 17.8879C114.017 17.0671 115.029 16.6681 116.263 16.6681ZM116.263 17.4982C115.201 17.4982 114.374 17.878 113.746 18.6584L113.745 18.6593L113.648 18.5793L113.744 18.6593C113.114 19.4197 112.793 20.4559 112.793 21.758C112.793 23.0131 113.114 24.0258 113.743 24.7629C114.372 25.499 115.2 25.8791 116.263 25.8791C117.325 25.879 118.153 25.4988 118.781 24.7629C119.411 24.0256 119.731 23.0359 119.731 21.758C119.731 20.4571 119.411 19.4431 118.779 18.6584V18.6574C118.15 17.8986 117.322 17.4983 116.263 17.4982Z" fill="#171238" stroke="#171238" stroke-width="0.25"/>
<path d="M130.788 16.8769V17.7529H127.497V26.5927H126.617V17.7529H123.349V16.8769H130.788Z" fill="#171238" stroke="#171238" stroke-width="0.25"/>
<path d="M137.851 16.6681C139.167 16.6682 140.23 17.1221 141.027 18.0578C141.82 18.9902 142.223 20.2277 142.223 21.758C142.223 23.2399 141.844 24.4309 141.026 25.341L141.027 25.342C140.253 26.2554 139.189 26.7091 137.851 26.7091C136.535 26.7091 135.473 26.2552 134.676 25.3439C133.882 24.435 133.478 23.2432 133.478 21.758C133.478 20.2302 133.856 18.9916 134.674 18.0578L134.828 17.8879C135.606 17.0671 136.617 16.6681 137.851 16.6681ZM137.851 17.4982C136.789 17.4982 135.963 17.878 135.334 18.6584L135.333 18.6593L135.237 18.5793L135.333 18.6593C134.703 19.4197 134.381 20.4559 134.381 21.758C134.381 23.0131 134.702 24.0258 135.332 24.7629C135.96 25.4986 136.811 25.8791 137.851 25.8791C138.913 25.879 139.741 25.4988 140.37 24.7629C140.999 24.0256 141.32 23.0359 141.32 21.758C141.32 20.4571 140.999 19.4431 140.368 18.6584V18.6574C139.738 17.8986 138.91 17.4983 137.851 17.4982Z" fill="#171238" stroke="#171238" stroke-width="0.25"/>
<path d="M149.986 16.6449C150.945 16.6449 151.812 16.9313 152.558 17.5043C153.307 18.057 153.745 18.7809 153.914 19.6459L153.942 19.7953H153.033L153.015 19.6918C152.904 19.0764 152.573 18.5467 151.99 18.1234L151.988 18.1225C151.43 17.7006 150.757 17.4984 149.986 17.4984C148.951 17.4986 148.075 17.8989 147.351 18.7309L147.35 18.7328C146.602 19.5665 146.237 20.5799 146.237 21.7348C146.237 22.8389 146.557 23.7782 147.214 24.5785L147.35 24.7367L147.351 24.7387C148.075 25.5706 148.951 25.971 149.986 25.9711C150.86 25.9711 151.598 25.6397 152.229 24.9672L152.34 24.8432C152.875 24.2168 153.152 23.4546 153.152 22.5697V22.4633H149.861V21.6332H153.893V26.6156H153.152V25.1078C152.899 25.5506 152.543 25.9263 152.085 26.224C151.458 26.6313 150.758 26.848 149.986 26.848C148.712 26.8479 147.606 26.3438 146.697 25.3451C145.788 24.3459 145.357 23.1554 145.357 21.7582C145.357 20.36 145.812 19.147 146.696 18.1488L146.697 18.1479C147.606 17.1492 148.712 16.645 149.986 16.6449Z" fill="#171238" stroke="#171238" stroke-width="0.25"/>
<path d="M162.379 16.8769C163.068 16.8769 163.661 17.1471 164.127 17.6582L164.299 17.8545C164.674 18.3235 164.862 18.8712 164.862 19.5078C164.862 20.1304 164.717 20.6882 164.422 21.1523C164.197 21.5066 163.912 21.7503 163.588 21.8916C163.887 22.074 164.13 22.385 164.313 22.8193H164.314C164.581 23.3979 164.699 24.1135 164.699 24.9131C164.699 25.2468 164.699 25.5211 164.708 25.7216L164.721 25.8974V25.8994C164.744 26.146 164.789 26.3191 164.83 26.4209L164.899 26.5927H164.025L163.988 26.5478C163.845 26.3779 163.772 26.113 163.749 25.7802V25.7763L163.702 24.4306V24.4258L163.695 24.1963C163.661 23.673 163.508 23.2347 163.255 22.8476V22.8466C162.968 22.4305 162.629 22.2315 162.263 22.2314H158.607V26.5927H157.704V16.8769H162.379ZM158.583 21.3779H162.24C162.717 21.3779 163.104 21.2077 163.456 20.8369L163.572 20.7031C163.825 20.3803 163.958 19.9931 163.958 19.5537C163.958 19.053 163.785 18.6206 163.458 18.2734L163.325 18.1513C163.008 17.8842 162.658 17.7529 162.24 17.7529H158.583V21.3779Z" fill="#171238" stroke="#171238" stroke-width="0.25"/>
<path d="M172.57 16.8769L172.601 16.956L176.335 26.4218L176.403 26.5927H175.388L175.356 26.5136L174.174 23.5537H169.955L168.75 26.5146L168.718 26.5927H167.726L167.794 26.4209L171.576 16.956L171.607 16.8769H172.57ZM170.242 22.7002H173.843L172.063 18.0869L170.242 22.7002Z" fill="#171238" stroke="#171238" stroke-width="0.25"/>
<path d="M184.084 16.8769C184.754 16.8769 185.301 17.1503 185.743 17.6621C186.207 18.1966 186.427 18.8064 186.427 19.5537C186.427 20.3215 186.209 20.9791 185.743 21.5156L185.742 21.5146C185.302 22.0478 184.733 22.3466 184.084 22.3466H180.545V26.5927H179.666V16.8769H184.084ZM180.545 21.4941H183.968C184.395 21.4941 184.759 21.3266 185.088 20.956L185.195 20.8222C185.428 20.5005 185.547 20.1132 185.547 19.6699C185.547 19.1407 185.393 18.6819 185.085 18.2881C184.782 17.9218 184.42 17.7529 183.968 17.7529H180.545V21.4941Z" fill="#171238" stroke="#171238" stroke-width="0.25"/>
<path d="M190.814 16.8769V21.0068H196.306V16.8769H197.209V26.5927H196.306V21.8828H190.814V26.5927H189.911V16.8769H190.814Z" fill="#171238" stroke="#171238" stroke-width="0.25"/>
<path d="M201.538 16.9001L201.575 16.9558L204.574 21.4148L207.481 16.9568L207.519 16.9001H208.729L208.601 17.0945L205.098 22.3992V26.5925H204.101V22.3992L200.458 17.0954L200.324 16.9001H201.538Z" fill="#171238" stroke="#171238" stroke-width="0.25"/>
</g>
</g>
<defs>
<clipPath id="clip0_14_138">
<rect width="208.8" height="42" fill="white"/>
</clipPath>
</defs>
</svg>
