<svg width="209" height="42" viewBox="0 0 209 42" fill="none" xmlns="http://www.w3.org/2000/svg">
<g clip-path="url(#clip0_72_6)">
<path d="M4.49795 41.1242C4.14699 40.8458 3.82794 40.405 3.44508 39.8018C3.09412 39.1754 2.80697 38.5722 2.61554 37.9922C2.16886 36.809 1.786 35.4633 1.49885 33.9785C1.11599 32.0065 0.828842 29.3385 0.605505 25.9976C0.414073 23.5616 0.318359 20.9399 0.318359 18.1327C0.318359 14.699 0.477884 7.99413 0.765031 3.70207C0.796936 3.12206 0.892653 2.54205 1.02027 1.93884C1.08408 1.63723 1.1798 1.38203 1.30742 1.19643C1.53076 0.894824 1.84981 0.732422 2.29648 0.732422C2.58363 0.732422 2.80697 0.802024 3.03031 0.918025C3.41317 1.17323 3.63651 1.45163 3.63651 1.82284C3.63651 2.07804 3.50889 2.26364 3.28555 2.44925C2.9665 2.65805 2.77506 2.98286 2.74316 3.44686C2.48791 7.15892 2.29648 13.1446 2.20077 15.6734C2.13696 18.0631 2.10505 19.8263 2.10505 21.0095C2.10505 24.188 2.23267 27.1576 2.51982 29.8953C2.80697 32.6329 3.31746 35.2545 4.08318 37.7834C4.2108 38.2242 4.43414 38.7346 4.72129 39.2914C5.00843 39.8482 5.29558 40.2426 5.61463 40.4978C5.77416 40.6138 5.93368 40.6834 6.09321 40.6834C6.25274 40.6834 6.44417 40.5906 6.6356 40.405C7.43323 39.6858 8.13515 38.6186 8.74135 37.2266C9.98566 34.5585 11.0704 31.0089 11.9957 26.5544C13.2719 20.6383 13.9419 14.3742 13.9738 7.78533V7.71573C13.9738 7.48373 13.9419 7.32132 13.8462 7.22852C13.7824 7.13572 13.6867 7.04292 13.559 6.97331C13.4314 6.90371 13.3038 6.85732 13.2719 6.83411C12.9847 6.62531 12.8571 6.46291 12.8571 6.34691C12.8571 6.0685 12.9847 5.8597 13.2719 5.6741C13.5271 5.48849 13.8462 5.41889 14.1971 5.41889L14.58 5.44209C15.3776 5.6509 15.7924 6.34691 15.8562 7.53013V7.62292C15.8881 7.92453 15.8881 8.38854 15.8881 9.01495C15.8881 11.9846 15.6329 15.4414 15.0905 19.4087C14.6119 23.144 14.0057 26.5312 13.2719 29.5705C12.5381 32.6097 11.4852 35.4865 10.1452 38.2242C9.76232 39.0594 9.18802 39.8714 8.4861 40.637C7.75228 41.4026 6.98656 41.7738 6.18893 41.7738C5.61463 41.7506 5.04034 41.5418 4.49795 41.1242Z" fill="#FEEBD4"/>
<path d="M21.632 14.9308C21.3768 14.9308 21.1215 14.8612 20.8982 14.722C20.6748 14.5828 20.5472 14.4204 20.5472 14.258C20.5472 14.1188 20.6429 13.9796 20.8344 13.8636C21.0258 13.7476 21.2172 13.7012 21.4406 13.7012C21.7277 13.7012 21.951 13.7708 22.1744 13.91C22.3658 14.0492 22.4934 14.1884 22.5253 14.3508C22.5253 14.5132 22.4296 14.6524 22.2382 14.7684C22.0787 14.8612 21.8553 14.9308 21.632 14.9308ZM21.4725 28.387C20.9939 28.5726 20.5472 28.6654 20.1644 28.6654C19.3029 28.6654 18.6967 28.2942 18.3139 27.5518C18.25 27.4358 18.2181 27.2734 18.1543 27.111C18.1224 26.9254 18.0905 26.7862 18.0586 26.6934C17.9948 26.4846 17.9629 25.9974 17.9629 25.2085C17.9629 24.5357 17.9948 23.8629 18.0905 23.1669C18.1543 22.6797 18.2819 21.9373 18.5053 20.9397C18.5691 20.6613 18.601 20.2669 18.601 19.7101C18.601 19.2693 18.8881 18.8517 19.4943 18.4108C19.622 18.318 19.8134 18.2484 20.0048 18.2484C20.2282 18.2484 20.4196 18.2948 20.5472 18.3644C20.962 18.55 21.1215 18.8052 20.962 19.1069C20.5791 20.1045 20.292 20.9629 20.1644 21.7285C19.7815 23.4453 19.6539 24.7909 19.6858 25.835C19.6858 26.5078 19.8453 27.0414 20.1644 27.4126C20.4196 27.3662 20.6429 27.2966 20.8025 27.2038C20.962 27.111 21.1853 26.9486 21.4087 26.763C22.9401 25.6494 24.3758 24.4197 25.7478 23.0973C26.003 22.8189 26.2583 22.5637 26.5454 22.3317C26.7687 22.1461 27.024 22.0533 27.3111 22.0533C27.6302 22.0533 27.8535 22.0997 28.045 22.2157C28.2364 22.3317 28.3321 22.4709 28.3321 22.6565C28.3321 22.7957 28.2683 22.9349 28.1088 23.0973L26.9602 24.1413C25.7159 25.3245 24.4078 26.415 23.0677 27.4126C22.4934 27.8766 21.983 28.1782 21.4725 28.387Z" fill="#FEEBD4"/>
<path d="M31.011 28.8046C30.5005 29.1062 29.9582 29.2686 29.4158 29.2686C28.6181 29.2686 27.9481 28.9206 27.3738 28.2478C26.8953 27.6214 26.5762 26.7166 26.3848 25.5334C26.321 24.3734 26.4805 23.1901 26.8633 22.0069C27.2462 20.8237 27.8524 19.7101 28.7138 18.6661C28.9372 18.3645 29.2243 18.1325 29.5115 17.9469C29.8305 17.7613 30.1177 17.6685 30.4367 17.6685C30.6282 17.6685 30.9153 17.7149 31.2344 17.8309C31.4896 17.9237 31.7129 18.1093 31.9044 18.3645C32.0958 18.6197 32.1915 18.8517 32.1915 19.0605C32.1915 19.2461 32.0958 19.3853 31.9044 19.5013C31.7129 19.6173 31.4896 19.6405 31.2344 19.6173C30.9472 19.5709 30.7877 19.5245 30.7239 19.5013C30.5963 19.4317 30.5006 19.4085 30.4367 19.4085C30.3091 19.4085 30.2134 19.4781 30.0858 19.6173L29.8305 19.9189C28.7138 21.6357 28.1396 23.3989 28.1396 25.2318C28.1396 26.1598 28.3629 26.9718 28.8096 27.691C28.9372 27.8766 29.1605 27.9694 29.4158 27.9694C29.5753 27.9694 29.7986 27.923 30.022 27.807C30.2453 27.6446 30.7558 27.227 31.5534 26.5774C32.5425 25.6958 33.4677 24.7446 34.3611 23.747C35.2544 22.7493 35.733 22.1925 35.8287 22.1229C36.084 21.8445 36.3711 21.7285 36.7221 21.7285C37.0092 21.7285 37.2326 21.7749 37.3921 21.8909C37.5516 21.9837 37.6154 22.1229 37.6154 22.2853C37.6154 22.4245 37.5835 22.5405 37.5197 22.5869C37.4878 22.6565 37.424 22.7493 37.2964 22.8653C36.3711 23.9325 35.733 24.6518 35.3821 25.0462C35.0311 25.4174 34.3292 26.0902 33.3401 26.995C32.7658 27.5054 32.2553 27.9462 31.7768 28.2942C31.5853 28.4566 31.3301 28.619 31.011 28.8046Z" fill="#FEEBD4"/>
<path d="M37.0731 40.3585C36.5307 40.3585 36.1479 40.1729 35.9245 39.8017C35.7969 39.6393 35.765 39.4537 35.765 39.2449C35.765 39.0593 35.8288 38.8969 35.9245 38.7577C36.116 38.5489 36.2117 38.2241 36.2117 37.8065C36.2117 36.4609 36.2117 35.4401 36.1798 34.7905V32.54V29.6632V25.5567L36.2117 23.3295L36.2436 22.9815C36.3074 20.7078 36.3712 19.0374 36.4669 18.0166C36.5945 15.4182 36.7541 13.4461 36.9455 12.0773C35.3502 12.2397 33.8507 12.3325 32.3511 12.3325C31.5216 12.3325 30.724 12.3093 29.8944 12.2397C28.6182 12.1237 27.5654 11.8685 26.7677 11.4973C26.0658 11.1725 25.7148 10.8013 25.7148 10.3837C25.7148 10.1981 25.8106 10.0357 25.9701 9.89649C26.1296 9.75729 26.3529 9.64128 26.6401 9.59488C26.7677 9.57168 26.8953 9.57168 27.1187 9.57168C27.5015 9.57168 27.7568 9.68769 27.9163 9.91969C27.9801 10.0125 28.012 10.1053 28.0439 10.1981C28.0758 10.2909 28.1077 10.3837 28.1396 10.4765C28.2673 10.7549 28.4587 10.9405 28.8097 11.0333C29.1287 11.1261 29.6073 11.1957 30.2454 11.2885C31.1387 11.3581 32.0002 11.3813 32.8297 11.3813C34.1697 11.3813 35.4141 11.3349 36.6584 11.2189L37.0731 11.1493V10.9869L37.5517 7.34445C37.6793 6.53244 37.8708 5.90603 38.0622 5.53482C38.1898 5.30282 38.4131 5.14042 38.7322 5.04762L39.0193 5.02441C39.2746 5.02441 39.4979 5.09402 39.6894 5.21002C40.0722 5.44202 40.2317 5.69722 40.1041 6.02203C39.6255 7.36765 39.2427 8.94527 38.9555 10.8013V10.9637C39.3384 10.9405 40.2956 10.8013 41.8908 10.5693C43.4861 10.3141 44.6666 10.1053 45.4323 9.89649C47.1233 9.45568 48.1762 9.08448 48.6228 8.80607C48.8781 8.62047 49.1652 8.52767 49.4843 8.52767C49.8352 8.52767 50.0905 8.62047 50.25 8.78287C50.4095 8.94527 50.4414 9.15408 50.3457 9.36288C50.2181 9.61808 49.8033 9.85009 49.1333 10.0589C48.4633 10.2677 47.2509 10.5693 45.4961 10.9637C44.7623 11.1261 43.6137 11.3117 42.0503 11.5437C40.487 11.7525 39.4022 11.8917 38.8598 11.9613C38.7322 12.6341 38.6684 13.3997 38.5727 14.2814C38.5089 15.1398 38.4451 15.743 38.4131 16.091C38.3493 16.8798 38.2855 17.4598 38.2536 17.8542C38.1898 18.5502 38.126 19.6406 38.0941 21.1255L37.9984 22.5175L37.9665 24.8839C37.9665 25.6263 37.9665 26.1831 37.9984 26.5543V29.3384L38.126 34.5585L38.1579 35.8809C38.1898 36.5073 38.1898 37.4817 38.1898 38.7809C38.1898 39.2217 38.1898 39.5233 38.1579 39.7321C38.0622 40.1729 37.775 40.4281 37.2646 40.4513H37.0731V40.3585Z" fill="#FEEBD4"/>
<path d="M45.0503 30.1506C44.7313 30.4986 44.2527 30.7306 43.7422 30.7306C43.2636 30.7306 42.8169 30.5914 42.4979 30.2434C42.2746 29.9882 41.9874 29.6866 41.796 29.2226C41.4769 28.457 41.2536 27.6218 41.1579 26.7865C41.0621 25.9513 41.0622 24.9073 41.0622 23.7705C41.0622 23.2601 41.1898 22.5409 41.2536 21.5433L41.5088 20.2904L41.5407 19.7336C41.5407 19.4552 41.3493 19.3392 40.9345 19.3392C40.775 19.3392 40.5517 19.3624 40.3283 19.4088C40.105 19.4552 39.9455 19.4784 39.9136 19.4784C39.6264 19.4784 39.3712 19.432 39.1797 19.316C38.9564 19.2 38.8607 19.0608 38.8288 18.8984L38.7969 18.8056C38.7969 18.5272 39.0521 18.272 39.5945 18.0864C39.6902 18.0632 39.9455 18.04 40.3602 17.9936C40.775 17.9472 41.126 17.8776 41.3812 17.7616C41.6364 17.6456 41.7641 17.46 41.796 17.1816C41.8279 17.0424 41.8598 16.8336 41.8917 16.6016C41.9236 16.3464 41.9874 16.1376 42.0512 15.952C42.0831 15.72 42.1788 15.5112 42.3384 15.2792C42.5298 15.0008 42.8488 14.8848 43.3274 14.8848C43.5508 14.8848 43.7103 14.908 43.8379 14.9544C44.2208 15.0704 44.4441 15.256 44.4441 15.5112C44.4441 15.604 44.4122 15.72 44.3165 15.8592C44.1251 16.2536 43.9974 16.4856 43.9655 16.532C43.9655 16.5552 43.9336 16.6248 43.9017 16.764C43.8698 16.9032 43.806 17.112 43.7422 17.3904C45.4332 16.9496 46.8689 16.648 48.0175 16.4392C48.7513 16.2768 49.4532 16.184 50.1232 16.184C50.9209 16.184 51.559 16.3464 52.0376 16.6712C52.5161 16.996 52.8033 17.4368 52.899 17.9936C52.9309 18.0864 52.9309 18.2488 52.9309 18.4576C52.9309 18.6664 52.899 18.968 52.8352 19.3856C52.7395 19.8496 52.6438 20.5224 52.548 21.3577L52.5161 21.7057C52.5161 21.8449 52.5481 21.9609 52.6119 22.0537C52.7714 21.9609 52.899 21.8217 52.9628 21.6825C53.0266 21.5433 53.0585 21.4505 53.0585 21.4041C53.7605 19.8264 54.6538 18.3648 55.6748 17.0656C56.1214 16.4624 56.5681 15.9984 57.0467 15.6504C57.3019 15.4184 57.5253 15.256 57.7486 15.14C57.9719 15.024 58.1953 14.9776 58.4824 14.9776C58.6101 14.9776 58.7696 15.0008 58.961 15.0704C59.4396 15.1864 59.7267 15.3952 59.8224 15.6736C59.9182 15.952 59.982 16.3464 59.982 16.8568V17.7848C59.982 17.9936 59.9501 18.156 59.8544 18.2488C59.7586 18.3416 59.5991 18.4344 59.3758 18.4576H59.2162C58.9929 18.4576 58.8015 18.4112 58.6101 18.3416C58.4505 18.272 58.3229 18.156 58.2591 18.0168C58.1953 17.9008 58.1634 17.7384 58.1315 17.5296C58.0996 17.344 58.0677 17.1816 58.0358 17.0424C57.8443 17.112 57.6848 17.1816 57.5891 17.2512C57.4934 17.344 57.3976 17.46 57.3019 17.6224C55.1324 20.3368 53.8243 23.3761 53.3457 26.7865L53.3138 27.3434C53.3138 27.7378 53.4095 28.0626 53.569 28.2946C53.6009 28.3642 53.6009 28.457 53.6009 28.573C53.6009 28.7122 53.5371 28.8282 53.3776 28.921C53.2181 29.0138 53.0266 29.0602 52.8033 29.0602C52.3566 29.0602 52.0057 28.921 51.7504 28.6658C51.3356 28.225 51.0485 27.761 50.9528 27.3434C50.8252 26.4849 50.7294 25.7193 50.7294 25.0233C50.7294 24.3273 50.7614 23.6777 50.8571 22.9817C50.9209 22.3785 51.0166 21.3809 51.208 19.9888L51.3357 18.968V18.5272C51.3357 18.2488 51.3356 18.0632 51.3037 17.9008C51.2399 17.7152 51.1442 17.5528 51.0166 17.4368C50.889 17.3208 50.6975 17.2512 50.5061 17.2512C50.1233 17.2512 49.7404 17.2744 49.3575 17.344C48.177 17.5064 46.2308 17.924 43.5508 18.5968C44.1251 18.7824 45.0184 19.432 45.2098 19.6408C45.6884 20.1512 46.3265 20.9865 46.7413 22.1001C47.188 23.2601 47.188 24.7217 46.9965 25.9049C46.8689 26.8561 46.5818 28.0858 45.9118 29.0834C45.5289 29.6634 45.2736 29.8954 45.0503 30.1506ZM43.7741 28.8282C44.1251 28.4106 44.6675 27.5522 44.9546 26.3921C45.1779 25.5337 45.3694 24.6289 45.2417 23.8401C45.0822 22.9585 44.3165 21.6361 43.2636 21.5201C43.136 21.9841 42.7531 23.4689 42.7531 24.5593C42.7531 26.1137 42.8489 26.5545 43.0403 27.413C43.0403 27.4362 43.1041 27.7146 43.2317 27.9698C43.2955 28.1554 43.3912 28.3642 43.4231 28.4106C43.4869 28.5266 43.6146 28.7586 43.7741 28.8282Z" fill="#FEEBD4"/>
<path d="M64.1613 14.9308C63.9061 14.9308 63.6508 14.8612 63.4275 14.722C63.2041 14.5828 63.0765 14.4204 63.0765 14.258C63.0765 14.1188 63.1722 13.9796 63.3637 13.8636C63.5551 13.7476 63.7465 13.7012 63.9699 13.7012C64.257 13.7012 64.4804 13.7708 64.7037 13.91C64.8951 14.0492 65.0227 14.1884 65.0546 14.3508C65.0546 14.5132 64.9589 14.6524 64.7675 14.7684C64.5761 14.8612 64.3846 14.9308 64.1613 14.9308ZM64.0018 28.387C63.5232 28.5726 63.0765 28.6654 62.6936 28.6654C61.8322 28.6654 61.226 28.2942 60.8431 27.5518C60.7793 27.4358 60.7474 27.2734 60.6836 27.111C60.6198 26.9486 60.6198 26.7862 60.5879 26.6934C60.5241 26.4846 60.4922 25.9974 60.4922 25.2085C60.4922 24.5357 60.5241 23.8629 60.6198 23.1669C60.6836 22.6797 60.8112 21.9373 61.0346 20.9397C61.0984 20.6613 61.1303 20.2669 61.1303 19.7101C61.1303 19.2693 61.4174 18.8517 62.0236 18.4108C62.1513 18.318 62.3427 18.2484 62.5341 18.2484C62.7575 18.2484 62.9489 18.2948 63.0765 18.3644C63.4913 18.55 63.6508 18.8052 63.4913 19.1069C63.1084 20.1045 62.8213 20.9629 62.6936 21.7285C62.3108 23.4453 62.1832 24.7909 62.2151 25.835C62.2151 26.5078 62.3746 27.0414 62.6936 27.4126C62.9489 27.3662 63.1722 27.2966 63.3318 27.2038C63.4913 27.111 63.7146 26.9486 63.938 26.763C65.4694 25.6494 66.9051 24.4197 68.2771 23.0973C68.5323 22.8189 68.7876 22.5637 69.0747 22.3317C69.298 22.1461 69.5533 22.0533 69.8404 22.0533C70.1595 22.0533 70.3828 22.0997 70.5743 22.2157C70.7657 22.3317 70.8614 22.4709 70.8614 22.6565C70.8614 22.7957 70.7976 22.9349 70.6381 23.0973L69.4895 24.1413C68.2452 25.3245 66.9371 26.415 65.597 27.4126C65.0227 27.8766 64.5123 28.1782 64.0018 28.387Z" fill="#FEEBD4"/>
<path d="M79.6349 30.4056C79.3796 30.4752 79.1244 30.4984 78.901 30.4984C78.0715 30.4984 77.4972 30.1968 77.1782 29.5936C76.8272 29.0136 76.6358 28.2944 76.5401 27.436C76.3805 26.0904 76.221 24.2343 76.1253 21.9143C75.9019 22.1463 75.7105 22.4015 75.551 22.7031C75.3915 23.0047 75.2638 23.2831 75.1362 23.5847C74.6257 24.8608 74.0834 25.9048 73.4772 26.6936C73.1581 27.1344 72.839 27.5056 72.4881 27.7376C72.1052 28.016 71.6905 28.132 71.2119 28.132C70.6057 28.132 70.0952 27.9 69.7123 27.4592C69.5528 27.2736 69.4252 27.0648 69.3614 26.7864C69.2976 26.5312 69.2338 26.3688 69.2018 26.2992C69.1061 25.9512 69.0742 25.6032 69.0742 25.2552C69.0742 24.6056 69.1699 23.9559 69.3614 23.3063C69.5528 22.6799 69.7123 22.1927 69.84 21.8911C70.1271 21.2183 70.4462 20.6383 70.7652 20.1743C71.1481 19.6871 71.499 19.3391 71.7862 19.1303C72.3286 18.7359 72.9029 18.5503 73.5091 18.5503C73.8281 18.5503 74.1791 18.6199 74.5619 18.7359L74.9129 18.8287C75.0405 18.7823 75.1362 18.7127 75.2 18.5735C75.2319 18.4575 75.2638 18.3647 75.2957 18.3183C75.3596 18.2255 75.3915 18.1095 75.4553 17.9703C75.4872 17.8543 75.551 17.7151 75.6467 17.5991C75.9019 17.2046 76.2529 17.019 76.6677 17.019C77.2739 17.019 77.6248 17.2974 77.7844 17.8311C77.8482 18.2255 77.912 20.4063 78.0077 24.3968C78.0077 24.9768 78.0077 25.348 78.0396 25.5104C78.0396 26.5776 78.1991 27.6448 78.5501 28.6888C78.6458 28.9208 78.7415 29.0832 78.8372 29.176C78.9649 29.2688 79.1563 29.3152 79.4753 29.292H79.5711C79.7625 29.292 79.9539 29.3384 80.1134 29.4544C80.273 29.5704 80.3368 29.6864 80.3049 29.8024C80.3049 30.104 80.0815 30.2896 79.6349 30.4056ZM71.3714 26.6008C71.499 26.508 71.6266 26.4152 71.7224 26.2992C71.8181 26.1832 71.8819 26.0904 71.9457 26.044C72.6476 24.9304 73.3176 23.5847 73.8919 21.9839C74.0195 21.6823 74.0514 21.3343 74.0514 20.9399C74.0514 20.7775 74.0195 20.5223 73.9557 20.1975C73.8919 19.9887 73.7962 19.8727 73.6048 19.8495H73.5091C73.3814 19.8495 73.2857 19.9191 73.1581 20.0351C72.7752 20.3831 72.5519 20.6383 72.4881 20.7775C71.4671 22.2159 70.9566 23.7239 70.9566 25.3016C70.9566 25.58 70.9566 25.812 70.9885 25.9512C70.9885 26.1136 70.9885 26.2528 71.0204 26.3456C71.0843 26.4384 71.2119 26.5312 71.3714 26.6008Z" fill="#FEEBD4"/>
<path d="M95.0713 16.877C95.7408 16.877 96.288 17.1503 96.7295 17.6621C97.1939 18.1966 97.414 18.8065 97.4141 19.5537C97.4141 20.3215 97.1956 20.9791 96.7295 21.5156L96.7285 21.5146C96.2885 22.0479 95.7195 22.3467 95.0713 22.3467H91.5322V26.5928H90.6289V16.877H95.0713ZM91.5322 21.4941H94.9551C95.382 21.4941 95.7454 21.3263 96.0742 20.9561C96.3788 20.6101 96.5332 20.1765 96.5332 19.6699C96.5332 19.1408 96.3795 18.6819 96.0723 18.2881L95.9561 18.1602C95.6773 17.8823 95.3507 17.753 94.9551 17.7529H91.5322V21.4941Z" fill="#FEEBD4" stroke="#FEEBD4" stroke-width="0.25"/>
<path d="M101.825 16.877V21.0068H107.316V16.877H108.22V26.5928H107.316V21.8828H101.825V26.5928H100.922V16.877H101.825Z" fill="#FEEBD4" stroke="#FEEBD4" stroke-width="0.25"/>
<path d="M116.264 16.6685C117.58 16.6685 118.643 17.1224 119.439 18.0581C120.233 18.9905 120.636 20.228 120.636 21.7583C120.636 23.2411 120.256 24.433 119.438 25.3433C118.641 26.2548 117.579 26.7094 116.264 26.7095C114.948 26.7095 113.885 26.2555 113.089 25.3442C112.295 24.4353 111.891 23.2436 111.891 21.7583C111.891 20.2306 112.269 18.9919 113.087 18.0581L113.24 17.8882C114.018 17.0674 115.03 16.6685 116.264 16.6685ZM116.264 17.4985C115.202 17.4985 114.375 17.8783 113.747 18.6587L113.746 18.6597C113.116 19.42 112.794 20.4562 112.794 21.7583C112.794 23.0134 113.115 24.0261 113.744 24.7632C114.372 25.4993 115.201 25.8794 116.264 25.8794C117.326 25.8793 118.154 25.4991 118.782 24.7632C119.412 24.0259 119.732 23.0363 119.732 21.7583C119.732 20.4575 119.412 19.4434 118.78 18.6587V18.6577C118.151 17.899 117.323 17.4986 116.264 17.4985Z" fill="#FEEBD4"/>
<path d="M113.746 18.6597L113.747 18.6587C114.375 17.8783 115.202 17.4985 116.264 17.4985C117.323 17.4986 118.151 17.899 118.78 18.6577V18.6587C119.412 19.4434 119.732 20.4575 119.732 21.7583C119.732 23.0363 119.412 24.0259 118.782 24.7632C118.154 25.4991 117.326 25.8793 116.264 25.8794C115.201 25.8794 114.372 25.4993 113.744 24.7632C113.115 24.0261 112.794 23.0134 112.794 21.7583C112.794 20.4562 113.116 19.42 113.746 18.6597ZM113.746 18.6597L113.649 18.5796M116.264 16.6685C117.58 16.6685 118.643 17.1224 119.439 18.0581C120.233 18.9905 120.636 20.228 120.636 21.7583C120.636 23.2411 120.256 24.433 119.438 25.3433C118.641 26.2548 117.579 26.7094 116.264 26.7095C114.948 26.7095 113.885 26.2555 113.089 25.3442C112.295 24.4353 111.891 23.2436 111.891 21.7583C111.891 20.2306 112.269 18.9919 113.087 18.0581L113.24 17.8882C114.018 17.0674 115.03 16.6685 116.264 16.6685Z" stroke="#FEEBD4" stroke-width="0.25"/>
<path d="M130.788 16.877V17.7529H127.497V26.5928H126.617V17.7529H123.35V16.877H130.788Z" fill="#FEEBD4" stroke="#FEEBD4" stroke-width="0.25"/>
<path d="M137.852 16.6685C139.167 16.6685 140.231 17.1224 141.027 18.0581C141.821 18.9905 142.224 20.228 142.224 21.7583C142.224 23.2402 141.844 24.4312 141.026 25.3413L141.027 25.3423C140.254 26.2557 139.19 26.7094 137.852 26.7095C136.536 26.7095 135.473 26.2555 134.677 25.3442C133.883 24.4353 133.479 23.2436 133.479 21.7583C133.479 20.2306 133.857 18.9919 134.675 18.0581L134.828 17.8882C135.606 17.0674 136.618 16.6685 137.852 16.6685ZM137.852 17.4985C136.79 17.4985 135.963 17.8783 135.335 18.6587L135.334 18.6597L135.237 18.5796L135.333 18.6597C134.703 19.42 134.382 20.4562 134.382 21.7583C134.382 23.0134 134.703 24.0261 135.332 24.7632C135.96 25.499 136.812 25.8794 137.852 25.8794C138.914 25.8793 139.742 25.4991 140.37 24.7632C140.999 24.0259 141.32 23.0363 141.32 21.7583C141.32 20.4575 140.999 19.4434 140.368 18.6587V18.6577C139.739 17.899 138.911 17.4986 137.852 17.4985Z" fill="#FEEBD4" stroke="#FEEBD4" stroke-width="0.25"/>
<path d="M149.986 16.645C150.945 16.645 151.812 16.9314 152.558 17.5044C153.307 18.0571 153.745 18.781 153.914 19.646L153.942 19.7954H153.033L153.015 19.6919C152.904 19.0765 152.573 18.5468 151.99 18.1235L151.988 18.1226C151.43 17.7007 150.757 17.4985 149.986 17.4985C148.951 17.4987 148.075 17.899 147.351 18.731L147.35 18.7329C146.602 19.5666 146.237 20.58 146.237 21.7349C146.237 22.839 146.557 23.7783 147.214 24.5786L147.35 24.7368L147.351 24.7388C148.075 25.5707 148.951 25.9711 149.986 25.9712C150.86 25.9712 151.598 25.6398 152.229 24.9673L152.34 24.8433C152.875 24.2169 153.152 23.4547 153.152 22.5698V22.4634H149.861V21.6333H153.893V26.6157H153.152V25.1079C152.899 25.5507 152.543 25.9264 152.085 26.2241C151.458 26.6314 150.758 26.8481 149.986 26.8481C148.712 26.848 147.606 26.3439 146.697 25.3452C145.788 24.346 145.357 23.1555 145.357 21.7583C145.357 20.3601 145.812 19.1471 146.696 18.1489L146.697 18.1479C147.606 17.1493 148.712 16.6451 149.986 16.645Z" fill="#FEEBD4" stroke="#FEEBD4" stroke-width="0.25"/>
<path d="M162.381 16.877C163.07 16.877 163.663 17.1471 164.129 17.6582L164.301 17.8545C164.675 18.3236 164.863 18.8712 164.863 19.5078C164.863 20.1304 164.719 20.6882 164.424 21.1523C164.199 21.5066 163.913 21.7503 163.59 21.8916C163.889 22.074 164.132 22.3851 164.314 22.8193H164.315C164.582 23.398 164.7 24.1136 164.7 24.9131C164.7 25.2468 164.7 25.5211 164.71 25.7217L164.723 25.8975V25.8994C164.745 26.1461 164.79 26.3191 164.831 26.4209L164.9 26.5928H164.026L163.989 26.5479C163.847 26.378 163.774 26.1131 163.75 25.7803V25.7764L163.703 24.4307V24.4258L163.696 24.1963C163.662 23.673 163.51 23.2347 163.257 22.8477C162.97 22.4316 162.631 22.2315 162.265 22.2314H158.608V26.5928H157.705V16.877H162.381ZM158.585 21.3779H162.241C162.718 21.3779 163.106 21.2077 163.457 20.8369L163.573 20.7031C163.826 20.3804 163.96 19.9931 163.96 19.5537C163.96 19.053 163.786 18.6206 163.46 18.2734L163.326 18.1514C163.009 17.8843 162.659 17.753 162.241 17.7529H158.585V21.3779Z" fill="#FEEBD4" stroke="#FEEBD4" stroke-width="0.25"/>
<path d="M172.572 16.877L172.604 16.9561L176.338 26.4219L176.405 26.5928H175.391L175.358 26.5137L174.177 23.5537H169.957L168.752 26.5146L168.721 26.5928H167.729L167.797 26.4209L171.578 16.9561L171.609 16.877H172.572ZM170.244 22.7002H173.846L172.065 18.0869L170.244 22.7002Z" fill="#FEEBD4" stroke="#FEEBD4" stroke-width="0.25"/>
<path d="M184.085 16.877C184.754 16.877 185.302 17.1503 185.743 17.6621C186.208 18.1966 186.428 18.8065 186.428 19.5537C186.428 20.3215 186.209 20.9791 185.743 21.5156L185.742 21.5146C185.302 22.0479 184.733 22.3467 184.085 22.3467H180.546V26.5928H179.666V16.877H184.085ZM180.546 21.4941H183.969C184.396 21.4941 184.76 21.3266 185.089 20.9561L185.195 20.8223C185.429 20.5005 185.548 20.1132 185.548 19.6699C185.548 19.1408 185.393 18.6819 185.086 18.2881C184.782 17.9218 184.421 17.753 183.969 17.7529H180.546V21.4941Z" fill="#FEEBD4" stroke="#FEEBD4" stroke-width="0.25"/>
<path d="M190.815 16.877V21.0068H196.307V16.877H197.21V26.5928H196.307V21.8828H190.815V26.5928H189.912V16.877H190.815Z" fill="#FEEBD4" stroke="#FEEBD4" stroke-width="0.25"/>
<path d="M201.538 16.9004L201.575 16.9561L204.574 21.415L207.481 16.957L207.519 16.9004H208.729L208.601 17.0947L205.098 22.3994V26.5928H204.101V22.3994L200.458 17.0957L200.324 16.9004H201.538Z" fill="#FEEBD4" stroke="#FEEBD4" stroke-width="0.25"/>
</g>
<defs>
<clipPath id="clip0_72_6">
<rect width="209" height="42" fill="white"/>
</clipPath>
</defs>
</svg>
